<?xml version="1.0" encoding="UTF-8" standalone="no"?>
<svg
   xmlns:dc="http://purl.org/dc/elements/1.1/"
   xmlns:cc="http://creativecommons.org/ns#"
   xmlns:rdf="http://www.w3.org/1999/02/22-rdf-syntax-ns#"
   xmlns:svg="http://www.w3.org/2000/svg"
   xmlns="http://www.w3.org/2000/svg"
   xmlns:xlink="http://www.w3.org/1999/xlink"
   xmlns:sodipodi="http://sodipodi.sourceforge.net/DTD/sodipodi-0.dtd"
   xmlns:inkscape="http://www.inkscape.org/namespaces/inkscape"
   width="700"
   height="500"
   version="1.1"
   id="svg260"
   sodipodi:docname="SharedASVs_MicInd.svg"
   inkscape:version="1.0.1 (3bc2e813f5, 2020-09-07)">
  <metadata
     id="metadata264">
    <rdf:RDF>
      <cc:Work
         rdf:about="">
        <dc:format>image/svg+xml</dc:format>
        <dc:type
           rdf:resource="http://purl.org/dc/dcmitype/StillImage" />
        <dc:title></dc:title>
      </cc:Work>
    </rdf:RDF>
  </metadata>
  <sodipodi:namedview
     pagecolor="#ffffff"
     bordercolor="#666666"
     borderopacity="1"
     objecttolerance="10"
     gridtolerance="10"
     guidetolerance="10"
     inkscape:pageopacity="0"
     inkscape:pageshadow="2"
     inkscape:window-width="1920"
     inkscape:window-height="1001"
     id="namedview262"
     showgrid="false"
     inkscape:zoom="1.66"
     inkscape:cx="350"
     inkscape:cy="250"
     inkscape:window-x="-9"
     inkscape:window-y="222"
     inkscape:window-maximized="1"
     inkscape:current-layer="svg260" />
  <defs
     id="defs19">
    <style
       type="text/css"
       id="style2"><![CDATA[
  .borderLine {
	   stroke: none;
	   fill-opacity:  0.2 ;
  }
  .outLine {
	   stroke-width:  1 ;
	   fill: none;
  }
  .circle {
	   stroke: #888888;
	   stroke-width: 0.5;
	   fill: none;
    pointer-events: all;
  }
  .nLabel {
	   font-family: Arial;
    pointer-events: none;
	   font-size: 10px;
	   text-anchor: middle;
	   alignment-baseline: central;
  }
  .belong { 
 display: none;
	   font-family: Arial;
    pointer-events: none;
	   font-size: 5px;
	   text-anchor: middle;
	   alignment-baseline: central;
  }
  .legend {
    font-family: Arial;
    font-size: 15px;
  }
  #legendBox {
    display:  inline ;
  }
  .p0{
    stroke: none;
    fill:  red ;
  }
  .q0{
    fill: none;
    stroke:  red ;
  }
  .p1{
    stroke: none;
    fill:  orange ;
  }
  .q1{
    fill: none;
    stroke:  orange ;
  }
  .p2{
    stroke: none;
    fill:  yellow ;
  }
  .q2{
    fill: none;
    stroke:  yellow ;
  }
  .p3{
    stroke: none;
    fill:  blue ;
  }
  .q3{
    fill: none;
    stroke:  blue ;
  }
  .p4{
    stroke: none;
    fill:  green ;
  }
  .q4{
    fill: none;
    stroke:  green ;
  }
]]></style>
    <symbol
       id="bl0">
      <path
         d="M 249.20 398.06 L 248.30 401.10 L 247.47 404.15 L 246.70 407.23 L 246.04 410.32 L 245.47 413.44 L 245.00 416.57 L 244.62 419.71 L 244.30 422.87 L 244.02 426.03 L 243.75 429.19 L 243.47 432.34 L 243.14 435.48 L 242.75 438.61 L 242.25 441.71 L 241.65 444.79 L 240.91 447.82 L 240.04 450.81 L 239.03 453.74 L 237.86 456.61 L 236.55 459.41 L 235.09 462.12 L 233.48 464.75 L 231.73 467.28 L 229.84 469.71 L 227.81 472.04 L 225.65 474.25 L 223.38 476.34 L 220.99 478.30 L 218.49 480.13 L 215.90 481.81 L 213.21 483.35 L 210.45 484.74 L 207.62 485.98 L 204.72 487.05 L 201.76 487.96 L 198.76 488.71 L 195.72 489.28 L 192.65 489.69 L 189.55 489.93 L 186.45 490.00 L 183.35 489.90 L 180.26 489.62 L 177.19 489.18 L 174.15 488.57 L 171.16 487.80 L 168.22 486.86 L 165.34 485.77 L 162.53 484.52 L 159.79 483.12 L 157.15 481.57 L 154.59 479.87 L 152.13 478.04 L 149.77 476.07 L 147.52 473.97 L 145.39 471.75 L 143.38 469.41 L 141.49 466.97 L 139.73 464.43 L 138.09 461.79 L 136.59 459.08 L 135.21 456.30 L 133.94 453.46 L 132.79 450.56 L 131.72 447.62 L 130.73 444.64 L 129.81 441.63 L 128.94 438.60 L 128.10 435.55 L 127.29 432.49 L 126.51 429.41 L 125.73 426.33 L 124.97 423.25 L 124.21 420.16 L 123.45 417.08 L 122.71 413.99 L 121.97 410.92 L 121.23 407.84 L 120.50 404.77 L 119.78 401.71 L 119.05 398.65 L 118.34 395.59 L 117.62 392.54 L 116.90 389.49 L 116.19 386.44 L 115.47 383.40 L 114.76 380.36 L 114.05 377.33 L 113.34 374.30 L 112.64 371.28 L 111.95 368.26 L 111.27 365.25 L 110.62 362.23 L 110.00 359.21 L 109.43 356.19 L 108.92 353.16 L 108.51 350.12 L 108.19 347.08 L 108.01 344.03 L 107.97 340.98 L 108.09 337.94 L 108.40 334.92 L 108.89 331.92 L 109.57 328.98 L 110.45 326.09 L 111.53 323.27 L 112.79 320.54 L 114.25 317.90 L 115.89 315.38 L 117.70 312.97 L 119.69 310.70 L 121.83 308.58 L 124.11 306.61 L 126.54 304.80 L 129.10 303.17 L 131.77 301.71 L 134.55 300.44 L 137.42 299.36 L 140.36 298.45 L 143.37 297.72 L 146.42 297.14 L 149.51 296.68 L 152.62 296.30 L 155.71 295.94 L 158.78 295.55 L 161.79 295.07 L 164.70 294.42 L 167.47 293.57 L 170.06 292.47 L 172.44 291.11 L 174.56 289.49 L 176.40 287.63 L 177.97 285.55 L 179.26 283.28 L 180.31 280.88 L 181.15 278.37 L 181.82 275.78 L 182.38 273.14 L 182.88 270.48 L 183.37 267.82 L 183.90 265.17 L 184.50 262.55 L 185.22 259.97 L 186.08 257.45 L 187.09 254.99 L 188.26 252.61 L 189.58 250.30 L 191.05 248.07 L 192.64 245.91 L 194.32 243.82 L 196.06 241.77 L 197.83 239.76 L 199.57 237.76 L 201.26 235.76 L 202.84 233.74 L 204.29 231.70 L 205.57 229.62 L 206.66 227.50 L 207.53 225.34 L 208.18 223.13 L 208.59 220.89 L 208.78 218.60 L 208.74 216.27 L 208.50 213.90 L 208.08 211.50 L 207.51 209.06 L 206.82 206.59 L 206.07 204.09 L 205.29 201.57 L 204.53 199.02 L 203.85 196.46 L 203.29 193.91 L 202.91 191.37 L 202.74 188.88 L 202.82 186.45 L 203.16 184.13 L 203.77 181.96 L 204.66 179.97 L 205.81 178.19 L 207.20 176.65 L 208.80 175.39 L 210.58 174.42 L 212.51 173.76 L 214.56 173.43 L 216.68 173.42 L 218.83 173.76 L 220.97 174.42 L 223.10 175.36 L 225.18 176.56 L 227.20 178.01 L 229.16 179.66 L 231.05 181.49 L 232.89 183.44 L 234.68 185.50 L 236.43 187.63 L 238.12 189.82 L 239.75 192.05 L 241.32 194.31 L 242.80 196.60 L 244.18 198.91 L 245.45 201.25 L 246.57 203.63 L 247.52 206.04 L 248.30 208.49 L 248.88 210.98 L 249.27 213.51 L 249.47 216.07 L 249.50 218.66 L 249.41 221.28 L 249.22 223.91 L 248.99 226.55 L 248.77 229.20 L 248.62 231.84 L 248.59 234.46 L 248.73 237.05 L 249.07 239.58 L 249.64 242.02 L 250.47 244.35 L 251.57 246.52 L 252.94 248.53 L 254.57 250.32 L 256.45 251.88 L 258.54 253.19 L 260.83 254.23 L 263.28 255.00 L 265.84 255.51 L 268.48 255.78 L 271.17 255.84 L 273.86 255.73 L 276.54 255.51 L 279.16 255.25 L 281.73 255.01 L 284.22 254.85 L 286.61 254.84 L 288.91 255.03 L 291.11 255.44 L 293.17 256.11 L 295.11 257.04 L 296.90 258.22 L 298.55 259.62 L 300.05 261.23 L 301.40 263.00 L 302.63 264.90 L 303.75 266.91 L 304.78 268.99 L 305.72 271.13 L 306.60 273.31 L 307.40 275.52 L 308.11 277.75 L 308.72 280.01 L 309.21 282.29 L 309.52 284.59 L 309.64 286.90 L 309.52 289.22 L 309.13 291.55 L 308.44 293.87 L 307.46 296.17 L 306.17 298.43 L 304.61 300.67 L 302.79 302.86 L 300.75 305.00 L 298.54 307.10 L 296.19 309.16 L 293.73 311.17 L 291.19 313.15 L 288.60 315.10 L 285.97 317.03 L 283.33 318.95 L 280.70 320.87 L 278.08 322.82 L 275.51 324.82 L 273.01 326.88 L 270.62 329.02 L 268.36 331.26 L 266.29 333.62 L 264.41 336.09 L 262.76 338.68 L 261.36 341.36 L 260.19 344.13 L 259.26 346.96 L 258.54 349.84 L 258.00 352.75 L 257.58 355.68 L 257.24 358.64 L 256.93 361.61 L 256.63 364.61 L 256.29 367.63 L 255.90 370.66 L 255.43 373.71 L 254.89 376.77 L 254.27 379.84 L 253.57 382.89 L 252.79 385.94 L 251.94 388.98 L 251.04 392.01 L 250.12 395.03 Z"
         id="path4" />
    </symbol>
    <symbol
       id="bl1">
      <path
         d="M 198.06 369.13 L 196.17 369.88 L 194.28 370.63 L 192.38 371.38 L 190.49 372.14 L 188.59 372.90 L 186.70 373.66 L 184.81 374.41 L 182.93 375.15 L 181.04 375.89 L 179.15 376.61 L 177.26 377.32 L 175.37 378.03 L 173.46 378.72 L 171.55 379.39 L 169.62 380.04 L 167.69 380.67 L 165.75 381.26 L 163.80 381.80 L 161.86 382.29 L 159.91 382.71 L 157.97 383.06 L 156.04 383.34 L 154.11 383.53 L 152.19 383.63 L 150.27 383.65 L 148.37 383.59 L 146.47 383.44 L 144.58 383.20 L 142.71 382.89 L 140.85 382.49 L 139.01 382.01 L 137.20 381.46 L 135.41 380.82 L 133.65 380.11 L 131.92 379.32 L 130.23 378.46 L 128.58 377.53 L 126.97 376.53 L 125.40 375.46 L 123.89 374.33 L 122.42 373.13 L 121.00 371.86 L 119.63 370.54 L 118.32 369.16 L 117.06 367.72 L 115.85 366.24 L 114.69 364.71 L 113.58 363.14 L 112.50 361.54 L 111.46 359.91 L 110.45 358.25 L 109.47 356.58 L 108.50 354.90 L 107.55 353.22 L 106.61 351.52 L 105.69 349.83 L 104.77 348.13 L 103.86 346.44 L 102.95 344.75 L 102.05 343.06 L 101.15 341.36 L 100.26 339.67 L 99.36 337.97 L 98.47 336.27 L 97.57 334.57 L 96.67 332.86 L 95.77 331.16 L 94.86 329.45 L 93.96 327.74 L 93.04 326.03 L 92.12 324.32 L 91.20 322.60 L 90.27 320.89 L 89.33 319.17 L 88.40 317.46 L 87.46 315.73 L 86.53 314.01 L 85.59 312.28 L 84.66 310.55 L 83.74 308.81 L 82.82 307.06 L 81.91 305.31 L 81.01 303.56 L 80.11 301.80 L 79.21 300.04 L 78.32 298.28 L 77.44 296.52 L 76.56 294.76 L 75.68 293.00 L 74.81 291.24 L 73.94 289.49 L 73.08 287.73 L 72.23 285.97 L 71.40 284.21 L 70.58 282.45 L 69.80 280.68 L 69.04 278.89 L 68.33 277.10 L 67.66 275.29 L 67.05 273.46 L 66.51 271.62 L 66.03 269.75 L 65.63 267.87 L 65.31 265.97 L 65.07 264.06 L 64.91 262.14 L 64.84 260.22 L 64.85 258.30 L 64.96 256.38 L 65.15 254.46 L 65.42 252.56 L 65.78 250.66 L 66.23 248.78 L 66.76 246.92 L 67.38 245.09 L 68.08 243.28 L 68.85 241.51 L 69.71 239.77 L 70.64 238.07 L 71.64 236.42 L 72.71 234.82 L 73.86 233.26 L 75.06 231.77 L 76.33 230.32 L 77.66 228.94 L 79.04 227.61 L 80.47 226.35 L 81.94 225.13 L 83.45 223.96 L 85.00 222.84 L 86.57 221.76 L 88.17 220.70 L 89.78 219.68 L 91.41 218.67 L 93.04 217.68 L 94.69 216.70 L 96.33 215.74 L 97.98 214.78 L 99.63 213.84 L 101.28 212.90 L 102.93 211.96 L 104.58 211.02 L 106.23 210.09 L 107.89 209.16 L 109.54 208.22 L 111.19 207.29 L 112.84 206.35 L 114.50 205.41 L 116.15 204.47 L 117.80 203.52 L 119.44 202.56 L 121.09 201.60 L 122.74 200.64 L 124.38 199.66 L 126.03 198.68 L 127.69 197.70 L 129.34 196.71 L 131.00 195.71 L 132.66 194.72 L 134.32 193.72 L 135.99 192.73 L 137.65 191.73 L 139.32 190.73 L 140.99 189.73 L 142.65 188.73 L 144.31 187.74 L 145.97 186.75 L 147.63 185.78 L 149.29 184.83 L 150.96 183.91 L 152.65 183.04 L 154.36 182.23 L 156.09 181.50 L 157.85 180.86 L 159.63 180.31 L 161.44 179.89 L 163.27 179.58 L 165.11 179.39 L 166.97 179.32 L 168.85 179.37 L 170.74 179.52 L 172.65 179.77 L 174.57 180.09 L 176.50 180.49 L 178.44 180.95 L 180.39 181.46 L 182.32 182.03 L 184.22 182.66 L 186.07 183.37 L 187.86 184.16 L 189.56 185.03 L 191.17 186.01 L 192.67 187.08 L 194.08 188.26 L 195.40 189.52 L 196.63 190.85 L 197.79 192.25 L 198.89 193.70 L 199.94 195.19 L 200.95 196.71 L 201.91 198.26 L 202.85 199.82 L 203.75 201.39 L 204.64 202.98 L 205.50 204.58 L 206.35 206.19 L 207.19 207.80 L 208.02 209.43 L 208.83 211.07 L 209.63 212.73 L 210.42 214.41 L 211.20 216.09 L 211.97 217.79 L 212.76 219.48 L 213.56 221.17 L 214.39 222.84 L 215.26 224.50 L 216.15 226.13 L 217.09 227.74 L 218.07 229.34 L 219.08 230.91 L 220.12 232.47 L 221.18 234.02 L 222.27 235.55 L 223.39 237.07 L 224.54 238.57 L 225.73 240.03 L 226.96 241.45 L 228.26 242.81 L 229.62 244.10 L 231.05 245.30 L 232.56 246.42 L 234.13 247.44 L 235.78 248.36 L 237.48 249.20 L 239.23 249.97 L 241.02 250.68 L 242.84 251.34 L 244.67 251.97 L 246.51 252.60 L 248.36 253.22 L 250.21 253.86 L 252.05 254.53 L 253.89 255.23 L 255.72 255.99 L 257.53 256.82 L 259.30 257.71 L 261.04 258.67 L 262.72 259.72 L 264.34 260.85 L 265.89 262.06 L 267.36 263.35 L 268.75 264.73 L 270.05 266.18 L 271.27 267.70 L 272.42 269.28 L 273.48 270.93 L 274.48 272.62 L 275.42 274.36 L 276.30 276.14 L 277.14 277.95 L 277.95 279.78 L 278.73 281.63 L 279.49 283.48 L 280.25 285.33 L 281.01 287.17 L 281.77 288.99 L 282.56 290.78 L 283.36 292.54 L 284.18 294.26 L 285.02 295.93 L 285.87 297.55 L 286.70 299.14 L 287.48 300.70 L 288.17 302.25 L 288.74 303.80 L 289.14 305.36 L 289.33 306.94 L 289.28 308.53 L 288.97 310.13 L 288.39 311.74 L 287.54 313.33 L 286.43 314.89 L 285.10 316.43 L 283.57 317.93 L 281.88 319.40 L 280.07 320.84 L 278.18 322.27 L 276.24 323.69 L 274.29 325.14 L 272.34 326.62 L 270.42 328.14 L 268.55 329.73 L 266.72 331.38 L 264.95 333.08 L 263.23 334.82 L 261.56 336.59 L 259.91 338.35 L 258.28 340.06 L 256.63 341.70 L 254.97 343.23 L 253.28 344.63 L 251.55 345.88 L 249.80 347.00 L 248.02 347.99 L 246.22 348.88 L 244.41 349.70 L 242.60 350.48 L 240.78 351.23 L 238.96 351.99 L 237.13 352.76 L 235.31 353.55 L 233.49 354.35 L 231.66 355.17 L 229.84 355.99 L 228.00 356.81 L 226.16 357.62 L 224.32 358.43 L 222.47 359.23 L 220.62 360.02 L 218.76 360.80 L 216.90 361.57 L 215.03 362.34 L 213.15 363.11 L 211.28 363.87 L 209.40 364.63 L 207.51 365.39 L 205.62 366.14 L 203.73 366.89 L 201.84 367.64 L 199.95 368.38 Z"
         id="path7" />
    </symbol>
    <symbol
       id="bl2">
      <path
         d="M 313.16 103.44 L 313.61 106.10 L 314.06 108.77 L 314.50 111.43 L 314.95 114.09 L 315.39 116.74 L 315.84 119.40 L 316.27 122.06 L 316.71 124.71 L 317.13 127.36 L 317.56 130.01 L 317.98 132.66 L 318.40 135.31 L 318.82 137.96 L 319.24 140.61 L 319.66 143.26 L 320.09 145.91 L 320.51 148.57 L 320.94 151.23 L 321.38 153.90 L 321.81 156.57 L 322.25 159.24 L 322.69 161.92 L 323.14 164.60 L 323.58 167.28 L 324.03 169.97 L 324.48 172.67 L 324.94 175.38 L 325.40 178.09 L 325.86 180.80 L 326.33 183.53 L 326.79 186.25 L 327.26 188.98 L 327.73 191.72 L 328.19 194.45 L 328.64 197.19 L 329.10 199.93 L 329.55 202.67 L 329.99 205.42 L 330.43 208.17 L 330.87 210.92 L 331.29 213.67 L 331.69 216.43 L 332.06 219.19 L 332.38 221.95 L 332.62 224.72 L 332.78 227.47 L 332.82 230.21 L 332.70 232.93 L 332.41 235.61 L 331.93 238.25 L 331.24 240.82 L 330.33 243.32 L 329.21 245.72 L 327.88 248.03 L 326.38 250.24 L 324.70 252.35 L 322.89 254.37 L 320.97 256.30 L 318.96 258.17 L 316.89 259.97 L 314.77 261.74 L 312.60 263.46 L 310.41 265.16 L 308.20 266.82 L 305.97 268.47 L 303.73 270.09 L 301.48 271.70 L 299.22 273.30 L 296.99 274.90 L 294.78 276.54 L 292.63 278.23 L 290.55 279.98 L 288.55 281.82 L 286.65 283.76 L 284.84 285.78 L 283.11 287.89 L 281.46 290.07 L 279.85 292.29 L 278.27 294.54 L 276.69 296.79 L 275.08 299.01 L 273.43 301.18 L 271.71 303.29 L 269.91 305.29 L 268.01 307.19 L 266.01 308.94 L 263.91 310.55 L 261.71 312.00 L 259.44 313.28 L 257.10 314.40 L 254.71 315.36 L 252.30 316.18 L 249.89 316.90 L 247.50 317.54 L 245.13 318.16 L 242.80 318.78 L 240.51 319.46 L 238.27 320.20 L 236.07 321.03 L 233.91 321.94 L 231.77 322.92 L 229.66 323.93 L 227.55 324.93 L 225.43 325.88 L 223.31 326.73 L 221.17 327.43 L 219.02 327.93 L 216.86 328.21 L 214.70 328.25 L 212.54 328.04 L 210.41 327.60 L 208.30 326.94 L 206.24 326.08 L 204.21 325.07 L 202.22 323.94 L 200.27 322.70 L 198.35 321.39 L 196.44 320.03 L 194.56 318.63 L 192.67 317.20 L 190.79 315.73 L 188.89 314.23 L 186.97 312.71 L 185.01 311.16 L 183.00 309.60 L 180.93 308.03 L 178.78 306.46 L 176.54 304.92 L 174.23 303.40 L 171.84 301.92 L 169.40 300.46 L 166.94 299.02 L 164.49 297.57 L 162.10 296.07 L 159.82 294.49 L 157.70 292.79 L 155.78 290.93 L 154.10 288.91 L 152.70 286.71 L 151.58 284.33 L 150.76 281.78 L 150.22 279.09 L 149.92 276.28 L 149.83 273.37 L 149.90 270.39 L 150.08 267.36 L 150.33 264.30 L 150.63 261.24 L 150.97 258.18 L 151.35 255.15 L 151.79 252.16 L 152.32 249.23 L 152.97 246.38 L 153.78 243.64 L 154.78 241.03 L 155.97 238.56 L 157.35 236.26 L 158.91 234.13 L 160.63 232.16 L 162.46 230.32 L 164.36 228.56 L 166.27 226.86 L 168.14 225.14 L 169.90 223.35 L 171.53 221.47 L 172.97 219.44 L 174.23 217.28 L 175.29 214.97 L 176.17 212.53 L 176.89 210.00 L 177.45 207.40 L 177.87 204.77 L 178.17 202.13 L 178.35 199.51 L 178.41 196.91 L 178.35 194.35 L 178.17 191.83 L 177.87 189.32 L 177.47 186.83 L 176.95 184.34 L 176.33 181.85 L 175.63 179.35 L 174.85 176.84 L 174.02 174.33 L 173.13 171.81 L 172.21 169.29 L 171.26 166.77 L 170.30 164.24 L 169.31 161.72 L 168.31 159.19 L 167.30 156.66 L 166.27 154.12 L 165.23 151.58 L 164.18 149.02 L 163.12 146.46 L 162.05 143.89 L 160.96 141.32 L 159.87 138.74 L 158.78 136.15 L 157.68 133.57 L 156.60 130.97 L 155.54 128.37 L 154.50 125.77 L 153.50 123.16 L 152.55 120.54 L 151.66 117.91 L 150.83 115.28 L 150.08 112.64 L 149.40 109.98 L 148.81 107.32 L 148.30 104.64 L 147.88 101.95 L 147.55 99.24 L 147.31 96.53 L 147.16 93.81 L 147.11 91.08 L 147.15 88.34 L 147.28 85.60 L 147.50 82.87 L 147.82 80.15 L 148.23 77.43 L 148.73 74.74 L 149.32 72.06 L 150.00 69.41 L 150.76 66.78 L 151.62 64.18 L 152.57 61.61 L 153.60 59.08 L 154.72 56.58 L 155.92 54.12 L 157.20 51.70 L 158.57 49.34 L 160.01 47.02 L 161.53 44.76 L 163.13 42.55 L 164.80 40.39 L 166.54 38.29 L 168.36 36.25 L 170.26 34.26 L 172.22 32.34 L 174.25 30.48 L 176.35 28.69 L 178.52 26.96 L 180.74 25.31 L 183.02 23.73 L 185.36 22.22 L 187.74 20.80 L 190.17 19.46 L 192.64 18.21 L 195.15 17.04 L 197.69 15.96 L 200.26 14.97 L 202.86 14.06 L 205.49 13.25 L 208.14 12.52 L 210.80 11.89 L 213.48 11.35 L 216.17 10.89 L 218.87 10.53 L 221.58 10.26 L 224.29 10.09 L 227.00 10.00 L 229.71 10.00 L 232.42 10.10 L 235.12 10.29 L 237.82 10.57 L 240.51 10.93 L 243.19 11.39 L 245.86 11.94 L 248.51 12.58 L 251.14 13.31 L 253.75 14.13 L 256.33 15.04 L 258.88 16.03 L 261.40 17.11 L 263.89 18.27 L 266.34 19.52 L 268.74 20.85 L 271.10 22.27 L 273.41 23.77 L 275.67 25.34 L 277.88 26.99 L 280.03 28.72 L 282.12 30.51 L 284.15 32.37 L 286.11 34.30 L 288.00 36.28 L 289.83 38.32 L 291.57 40.41 L 293.24 42.55 L 294.83 44.74 L 296.34 46.98 L 297.77 49.27 L 299.12 51.60 L 300.39 53.97 L 301.58 56.39 L 302.69 58.84 L 303.72 61.32 L 304.67 63.84 L 305.54 66.38 L 306.35 68.95 L 307.08 71.54 L 307.76 74.15 L 308.37 76.78 L 308.95 79.42 L 309.48 82.07 L 309.98 84.73 L 310.46 87.40 L 310.92 90.07 L 311.38 92.75 L 311.82 95.43 L 312.27 98.10 L 312.72 100.77 Z"
         id="path10" />
    </symbol>
    <symbol
       id="bl3">
      <path
         d="M 435.15 317.17 L 435.16 319.88 L 435.05 322.58 L 434.83 325.26 L 434.50 327.93 L 434.06 330.58 L 433.51 333.20 L 432.85 335.79 L 432.09 338.35 L 431.22 340.88 L 430.24 343.36 L 429.17 345.79 L 428.00 348.18 L 426.73 350.52 L 425.36 352.80 L 423.91 355.02 L 422.36 357.18 L 420.72 359.28 L 419.00 361.30 L 417.19 363.25 L 415.31 365.13 L 413.35 366.93 L 411.31 368.64 L 409.21 370.27 L 407.05 371.81 L 404.82 373.25 L 402.54 374.61 L 400.21 375.87 L 397.82 377.03 L 395.40 378.08 L 392.93 379.04 L 390.43 379.90 L 387.90 380.65 L 385.35 381.30 L 382.77 381.85 L 380.17 382.30 L 377.56 382.65 L 374.94 382.92 L 372.31 383.10 L 369.66 383.21 L 367.01 383.26 L 364.35 383.25 L 361.68 383.20 L 359.02 383.12 L 356.35 383.01 L 353.68 382.89 L 351.00 382.75 L 348.33 382.60 L 345.66 382.45 L 342.99 382.30 L 340.31 382.15 L 337.63 381.99 L 334.94 381.83 L 332.25 381.67 L 329.55 381.51 L 326.84 381.35 L 324.13 381.20 L 321.41 381.04 L 318.68 380.89 L 315.95 380.74 L 313.21 380.59 L 310.47 380.45 L 307.72 380.31 L 304.97 380.16 L 302.21 380.02 L 299.43 379.86 L 296.64 379.69 L 293.82 379.50 L 290.97 379.28 L 288.09 379.01 L 285.17 378.68 L 282.20 378.29 L 279.20 377.81 L 276.16 377.24 L 273.10 376.59 L 270.02 375.86 L 266.95 375.05 L 263.89 374.17 L 260.87 373.23 L 257.91 372.22 L 255.05 371.14 L 252.30 369.99 L 249.71 368.74 L 247.30 367.39 L 245.07 365.92 L 243.06 364.33 L 241.25 362.60 L 239.63 360.76 L 238.18 358.81 L 236.88 356.75 L 235.70 354.61 L 234.62 352.40 L 233.62 350.11 L 232.70 347.75 L 231.84 345.30 L 231.06 342.77 L 230.35 340.13 L 229.70 337.40 L 229.12 334.56 L 228.59 331.65 L 228.07 328.67 L 227.53 325.67 L 226.93 322.68 L 226.24 319.72 L 225.42 316.83 L 224.44 314.00 L 223.31 311.25 L 222.03 308.56 L 220.62 305.91 L 219.08 303.29 L 217.44 300.69 L 215.71 298.11 L 213.88 295.55 L 211.96 293.05 L 209.92 290.63 L 207.77 288.31 L 205.49 286.11 L 203.09 284.04 L 200.59 282.09 L 197.99 280.25 L 195.33 278.50 L 192.62 276.80 L 189.88 275.14 L 187.13 273.51 L 184.37 271.91 L 181.61 270.33 L 178.85 268.78 L 176.10 267.27 L 173.36 265.78 L 170.65 264.30 L 167.98 262.78 L 165.39 261.19 L 162.89 259.48 L 160.53 257.61 L 158.30 255.55 L 156.24 253.31 L 154.35 250.88 L 152.63 248.28 L 151.08 245.55 L 149.71 242.72 L 148.53 239.82 L 147.56 236.88 L 146.83 233.93 L 146.35 230.99 L 146.09 228.08 L 145.97 225.18 L 146.16 222.28 L 147.30 219.74 L 149.49 217.93 L 151.74 216.22 L 154.10 214.63 L 156.58 213.21 L 159.19 211.97 L 161.90 210.90 L 164.67 209.96 L 167.49 209.12 L 170.32 208.34 L 173.16 207.59 L 176.00 206.87 L 178.83 206.16 L 181.67 205.47 L 184.50 204.80 L 187.33 204.19 L 190.14 203.64 L 192.95 203.16 L 195.73 202.75 L 198.49 202.39 L 201.22 202.08 L 203.92 201.77 L 206.57 201.44 L 209.17 201.05 L 211.71 200.57 L 214.19 199.98 L 216.61 199.24 L 218.97 198.37 L 221.28 197.34 L 223.55 196.15 L 225.78 194.82 L 228.00 193.34 L 230.20 191.73 L 232.41 189.99 L 234.61 188.14 L 236.82 186.20 L 239.05 184.19 L 241.28 182.13 L 243.54 180.05 L 245.81 177.98 L 248.12 175.93 L 250.46 173.96 L 252.85 172.07 L 255.27 170.31 L 257.74 168.70 L 260.26 167.28 L 262.81 166.05 L 265.40 165.05 L 268.01 164.27 L 270.63 163.74 L 273.25 163.46 L 275.85 163.42 L 278.43 163.63 L 280.96 164.08 L 283.43 164.76 L 285.82 165.67 L 288.12 166.79 L 290.30 168.11 L 292.34 169.63 L 294.24 171.33 L 295.97 173.19 L 297.53 175.20 L 298.89 177.34 L 300.06 179.60 L 301.01 181.95 L 301.74 184.39 L 302.25 186.88 L 302.54 189.42 L 302.59 191.98 L 302.42 194.55 L 302.03 197.10 L 301.43 199.63 L 300.64 202.11 L 299.67 204.55 L 298.56 206.94 L 297.33 209.28 L 296.01 211.60 L 294.66 213.88 L 293.31 216.17 L 291.99 218.46 L 290.76 220.77 L 289.64 223.10 L 288.64 225.47 L 287.78 227.86 L 287.06 230.28 L 286.44 232.72 L 285.91 235.17 L 285.41 237.63 L 284.92 240.09 L 284.40 242.57 L 283.85 245.05 L 283.25 247.53 L 282.62 250.03 L 282.02 252.52 L 281.47 255.02 L 281.06 257.50 L 280.82 259.94 L 280.84 262.32 L 281.14 264.59 L 281.75 266.72 L 282.68 268.68 L 283.98 270.39 L 285.62 271.78 L 287.56 272.81 L 289.71 273.50 L 292.02 273.91 L 294.44 274.05 L 296.94 273.92 L 299.49 273.59 L 302.05 273.08 L 304.63 272.45 L 307.19 271.73 L 309.76 270.95 L 312.32 270.13 L 314.87 269.29 L 317.43 268.43 L 320.00 267.57 L 322.56 266.70 L 325.13 265.83 L 327.71 264.96 L 330.28 264.08 L 332.85 263.21 L 335.41 262.33 L 337.98 261.47 L 340.54 260.62 L 343.09 259.79 L 345.65 258.98 L 348.21 258.22 L 350.77 257.50 L 353.34 256.84 L 355.92 256.25 L 358.50 255.73 L 361.09 255.30 L 363.69 254.97 L 366.29 254.72 L 368.90 254.58 L 371.51 254.54 L 374.13 254.61 L 376.74 254.79 L 379.35 255.07 L 381.96 255.46 L 384.55 255.95 L 387.12 256.56 L 389.67 257.27 L 392.19 258.08 L 394.67 259.01 L 397.12 260.03 L 399.53 261.16 L 401.89 262.39 L 404.20 263.71 L 406.45 265.14 L 408.65 266.65 L 410.78 268.26 L 412.84 269.95 L 414.83 271.73 L 416.74 273.58 L 418.57 275.52 L 420.32 277.52 L 421.98 279.60 L 423.56 281.75 L 425.04 283.97 L 426.44 286.25 L 427.74 288.59 L 428.94 290.99 L 430.04 293.44 L 431.04 295.94 L 431.94 298.49 L 432.73 301.09 L 433.42 303.71 L 433.99 306.37 L 434.45 309.05 L 434.80 311.75 L 435.03 314.46 Z"
         id="path13" />
    </symbol>
    <symbol
       id="bl4">
      <path
         d="M 313.31 357.00 L 313.82 359.90 L 314.28 362.83 L 314.72 365.78 L 315.15 368.74 L 315.56 371.72 L 315.96 374.70 L 316.36 377.69 L 316.75 380.69 L 317.13 383.69 L 317.50 386.69 L 317.86 389.70 L 318.21 392.72 L 318.54 395.75 L 318.85 398.78 L 319.12 401.82 L 319.33 404.85 L 319.49 407.89 L 319.56 410.92 L 319.52 413.93 L 319.35 416.93 L 319.04 419.89 L 318.55 422.81 L 317.88 425.68 L 317.02 428.48 L 315.96 431.21 L 314.70 433.83 L 313.25 436.35 L 311.60 438.75 L 309.76 441.01 L 307.76 443.11 L 305.59 445.05 L 303.27 446.81 L 300.82 448.39 L 298.26 449.76 L 295.59 450.93 L 292.83 451.88 L 290.02 452.61 L 287.16 453.12 L 284.27 453.39 L 281.38 453.44 L 278.49 453.26 L 275.64 452.85 L 272.83 452.22 L 270.08 451.37 L 267.41 450.30 L 264.84 449.03 L 262.37 447.56 L 260.02 445.90 L 257.80 444.07 L 255.72 442.08 L 253.77 439.94 L 251.97 437.67 L 250.29 435.28 L 248.74 432.80 L 247.28 430.24 L 245.92 427.62 L 244.61 424.96 L 243.34 422.27 L 242.08 419.58 L 240.81 416.89 L 239.51 414.21 L 238.16 411.57 L 236.76 408.95 L 235.30 406.37 L 233.78 403.82 L 232.22 401.31 L 230.62 398.81 L 229.00 396.33 L 227.39 393.84 L 225.81 391.33 L 224.28 388.79 L 222.79 386.23 L 221.35 383.63 L 219.97 380.99 L 218.64 378.33 L 217.34 375.64 L 216.07 372.93 L 214.84 370.21 L 213.63 367.46 L 212.46 364.70 L 211.33 361.92 L 210.26 359.12 L 209.25 356.29 L 208.33 353.43 L 207.49 350.54 L 206.75 347.62 L 206.11 344.68 L 205.57 341.71 L 205.12 338.72 L 204.76 335.72 L 204.50 332.72 L 204.35 329.72 L 204.33 326.74 L 204.45 323.79 L 204.73 320.87 L 205.18 317.98 L 205.79 315.14 L 206.54 312.32 L 207.39 309.54 L 208.31 306.77 L 209.23 304.02 L 210.12 301.26 L 210.95 298.49 L 211.70 295.72 L 212.39 292.95 L 213.02 290.17 L 213.62 287.40 L 214.21 284.65 L 214.81 281.91 L 215.42 279.20 L 216.03 276.50 L 216.62 273.81 L 217.15 271.12 L 217.56 268.42 L 217.79 265.72 L 217.80 263.03 L 217.53 260.35 L 216.94 257.72 L 216.01 255.18 L 214.74 252.76 L 213.14 250.48 L 211.24 248.37 L 209.08 246.44 L 206.70 244.68 L 204.16 243.07 L 201.50 241.58 L 198.78 240.18 L 196.04 238.84 L 193.31 237.53 L 190.62 236.23 L 187.98 234.95 L 185.40 233.67 L 182.89 232.42 L 180.42 231.20 L 177.99 230.03 L 175.61 228.89 L 173.28 227.78 L 171.02 226.67 L 168.83 225.51 L 166.75 224.27 L 164.80 222.91 L 162.98 221.41 L 161.30 219.74 L 159.76 217.92 L 158.35 215.97 L 157.05 213.90 L 155.88 211.75 L 154.82 209.53 L 153.88 207.27 L 153.08 204.99 L 152.43 202.71 L 151.96 200.44 L 151.67 198.20 L 151.61 196.01 L 151.76 193.88 L 152.16 191.85 L 152.81 189.94 L 153.70 188.17 L 154.82 186.56 L 156.16 185.15 L 157.70 183.94 L 159.42 182.97 L 161.27 182.22 L 163.25 181.71 L 165.33 181.43 L 167.49 181.37 L 169.71 181.50 L 171.97 181.82 L 174.26 182.29 L 176.56 182.90 L 178.86 183.64 L 181.15 184.49 L 183.43 185.42 L 185.70 186.41 L 187.97 187.41 L 190.18 188.64 L 192.07 190.35 L 193.79 192.17 L 195.50 193.99 L 197.17 195.85 L 198.79 197.74 L 200.37 199.70 L 201.89 201.71 L 203.38 203.77 L 204.83 205.88 L 206.25 208.02 L 207.65 210.18 L 209.02 212.34 L 210.38 214.48 L 211.74 216.58 L 213.11 218.62 L 214.52 220.57 L 215.98 222.41 L 217.52 224.12 L 219.17 225.67 L 220.92 227.03 L 222.79 228.19 L 224.76 229.13 L 226.84 229.83 L 229.00 230.29 L 231.23 230.51 L 233.51 230.49 L 235.83 230.25 L 238.17 229.81 L 240.53 229.18 L 242.91 228.41 L 245.30 227.52 L 247.69 226.55 L 250.10 225.54 L 252.51 224.54 L 254.92 223.59 L 257.34 222.73 L 259.77 222.00 L 262.19 221.40 L 264.60 220.95 L 267.01 220.61 L 269.41 220.37 L 271.80 220.18 L 274.17 219.99 L 276.53 219.76 L 278.88 219.46 L 281.21 219.06 L 283.53 218.55 L 285.86 217.92 L 288.19 217.19 L 290.54 216.38 L 292.93 215.52 L 295.37 214.66 L 297.86 213.84 L 300.39 213.11 L 302.96 212.50 L 305.54 212.05 L 308.09 211.81 L 310.60 211.78 L 313.04 211.99 L 315.40 212.44 L 317.65 213.14 L 319.79 214.10 L 321.81 215.31 L 323.71 216.77 L 325.46 218.49 L 327.05 220.44 L 328.46 222.62 L 329.65 224.98 L 330.60 227.49 L 331.28 230.10 L 331.69 232.76 L 331.80 235.43 L 331.61 238.07 L 331.14 240.65 L 330.39 243.14 L 329.39 245.53 L 328.16 247.81 L 326.72 249.98 L 325.12 252.04 L 323.39 254.00 L 321.55 255.86 L 319.63 257.65 L 317.65 259.36 L 315.64 261.02 L 313.60 262.64 L 311.54 264.23 L 309.46 265.80 L 307.37 267.34 L 305.27 268.86 L 303.17 270.35 L 301.07 271.82 L 298.99 273.26 L 296.93 274.70 L 294.90 276.15 L 292.91 277.66 L 290.97 279.24 L 289.08 280.95 L 287.25 282.79 L 285.49 284.78 L 283.78 286.91 L 282.16 289.17 L 280.62 291.52 L 279.18 293.93 L 277.89 296.36 L 276.78 298.78 L 275.88 301.16 L 275.24 303.47 L 274.91 305.71 L 274.91 307.85 L 275.27 309.90 L 276.00 311.84 L 277.09 313.68 L 278.52 315.42 L 280.27 317.07 L 282.28 318.66 L 284.51 320.19 L 286.90 321.70 L 289.38 323.22 L 291.91 324.78 L 294.43 326.41 L 296.88 328.12 L 299.22 329.94 L 301.41 331.88 L 303.43 333.94 L 305.25 336.12 L 306.85 338.42 L 308.26 340.82 L 309.46 343.33 L 310.49 345.92 L 311.36 348.59 L 312.11 351.34 L 312.75 354.15 Z"
         id="path16" />
    </symbol>
  </defs>
  <!-- isDone: 0 -->
  <rect
     width="700"
     height="500"
     style="fill:#fff;stroke-width:0"
     id="rect21" />
  <use
     class="p0 borderLine"
     xlink:href="#bl0"
     id="use23" />
  <use
     class="p1 borderLine"
     xlink:href="#bl1"
     id="use25" />
  <use
     class="p2 borderLine"
     xlink:href="#bl2"
     id="use27" />
  <use
     class="p3 borderLine"
     xlink:href="#bl3"
     id="use29" />
  <use
     class="p4 borderLine"
     xlink:href="#bl4"
     id="use31" />
  <use
     class="q0 outLine"
     xlink:href="#bl0"
     id="use33" />
  <use
     class="q1 outLine"
     xlink:href="#bl1"
     id="use35" />
  <use
     class="q2 outLine"
     xlink:href="#bl2"
     id="use37" />
  <use
     class="q3 outLine"
     xlink:href="#bl3"
     id="use39" />
  <use
     class="q4 outLine"
     xlink:href="#bl4"
     id="use41" />
  <circle
     onclick="fromCircle(16)"
     class="circle"
     cx="186.4359"
     cy="435.5249"
     r="52.8873"
     id="circle43" />
  <text
     class="nLabel"
     x="186.44"
     y="430.52"
     id="text45">80</text>
  <text
     class="belong"
     x="186.44"
     y="440.52"
     id="text47">(1)</text>
  <circle
     onclick="fromCircle(24)"
     class="circle"
     cx="150.5475"
     cy="340.2021"
     r="40.1038"
     id="circle49" />
  <text
     class="nLabel"
     x="150.55"
     y="335.20"
     id="text51">46</text>
  <text
     class="belong"
     x="150.55"
     y="345.20"
     id="text53">(1, 2)</text>
  <circle
     onclick="fromCircle(28)"
     class="circle"
     cx="194.7266"
     cy="296.7581"
     r="13.2218"
     id="circle55" />
  <text
     class="nLabel"
     x="194.73"
     y="291.76"
     id="text57">5</text>
  <text
     class="belong"
     x="194.73"
     y="301.76"
     id="text59">(1, 2, 3)</text>
  <circle
     onclick="fromCircle(30)"
     class="circle"
     cx="201.9439"
     cy="261.1379"
     r="14.4838"
     id="circle61" />
  <text
     class="nLabel"
     x="201.94"
     y="256.14"
     id="text63">6</text>
  <text
     class="belong"
     x="201.94"
     y="266.14"
     id="text65">(1, 2, 3, 4)</text>
  <circle
     onclick="fromCircle(31)"
     class="circle"
     cx="246.0647"
     cy="286.1187"
     r="27.7344"
     id="circle67" />
  <text
     class="nLabel"
     x="246.06"
     y="281.12"
     id="text69">22</text>
  <text
     class="belong"
     x="246.06"
     y="291.12"
     id="text71">(1, 2, 3, 4, 5)</text>
  <circle
     onclick="fromCircle(8)"
     class="circle"
     cx="107.0490"
     cy="259.4503"
     r="39.2223"
     id="circle73" />
  <text
     class="nLabel"
     x="107.05"
     y="254.45"
     id="text75">44</text>
  <text
     class="belong"
     x="107.05"
     y="264.45"
     id="text77">(2)</text>
  <circle
     onclick="fromCircle(12)"
     class="circle"
     cx="164.7956"
     cy="279.5391"
     r="13.2218"
     id="circle79" />
  <text
     class="nLabel"
     x="164.80"
     y="274.54"
     id="text81">5</text>
  <text
     class="belong"
     x="164.80"
     y="284.54"
     id="text83">(2, 3)</text>
  <circle
     onclick="fromCircle(14)"
     class="circle"
     cx="170.2320"
     cy="245.3655"
     r="14.4838"
     id="circle85" />
  <text
     class="nLabel"
     x="170.23"
     y="240.37"
     id="text87">6</text>
  <text
     class="belong"
     x="170.23"
     y="250.37"
     id="text89">(2, 3, 4)</text>
  <circle
     onclick="fromCircle(15)"
     class="circle"
     cx="193.6416"
     cy="219.2066"
     r="13.2218"
     id="circle91" />
  <text
     class="nLabel"
     x="193.64"
     y="214.21"
     id="text93">5</text>
  <text
     class="belong"
     x="193.64"
     y="224.21"
     id="text95">(2, 3, 4, 5)</text>
  <circle
     onclick="fromCircle(10)"
     class="circle"
     cx="151.9864"
     cy="223.6941"
     r="5.9130"
     id="circle97" />
  <text
     class="nLabel"
     x="151.99"
     y="218.69"
     id="text99">1</text>
  <text
     class="belong"
     x="151.99"
     y="228.69"
     id="text101">(2, 4)</text>
  <circle
     onclick="fromCircle(11)"
     class="circle"
     cx="166.5999"
     cy="216.2162"
     r="5.9130"
     id="circle103" />
  <text
     class="nLabel"
     x="166.60"
     y="211.22"
     id="text105">1</text>
  <text
     class="belong"
     x="166.60"
     y="221.22"
     id="text107">(2, 4, 5)</text>
  <circle
     onclick="fromCircle(9)"
     class="circle"
     cx="164.3484"
     cy="194.2025"
     r="11.8260"
     id="circle109" />
  <text
     class="nLabel"
     x="164.35"
     y="189.20"
     id="text111">4</text>
  <text
     class="belong"
     x="164.35"
     y="199.20"
     id="text113">(2, 5)</text>
  <circle
     onclick="fromCircle(13)"
     class="circle"
     cx="186.6809"
     cy="193.4598"
     r="5.9130"
     id="circle115" />
  <text
     class="nLabel"
     x="186.68"
     y="188.46"
     id="text117">1</text>
  <text
     class="belong"
     x="186.68"
     y="198.46"
     id="text119">(2, 3, 5)</text>
  <circle
     onclick="fromCircle(4)"
     class="circle"
     cx="228.1612"
     cy="89.2865"
     r="77.7732"
     id="circle121" />
  <text
     class="nLabel"
     x="228.16"
     y="84.29"
     id="text123">173</text>
  <text
     class="belong"
     x="228.16"
     y="94.29"
     id="text125">(3)</text>
  <circle
     onclick="fromCircle(20)"
     class="circle"
     cx="215.6670"
     cy="185.4725"
     r="11.8260"
     id="circle127" />
  <text
     class="nLabel"
     x="215.67"
     y="180.47"
     id="text129">4</text>
  <text
     class="belong"
     x="215.67"
     y="190.47"
     id="text131">(1, 3)</text>
  <circle
     onclick="fromCircle(22)"
     class="circle"
     cx="231.5950"
     cy="213.2064"
     r="15.6443"
     id="circle133" />
  <text
     class="nLabel"
     x="231.59"
     y="208.21"
     id="text135">7</text>
  <text
     class="belong"
     x="231.59"
     y="218.21"
     id="text137">(1, 3, 4)</text>
  <circle
     onclick="fromCircle(23)"
     class="circle"
     cx="237.3424"
     cy="238.7626"
     r="5.9130"
     id="circle139" />
  <text
     class="nLabel"
     x="237.34"
     y="233.76"
     id="text141">1</text>
  <text
     class="belong"
     x="237.34"
     y="243.76"
     id="text143">(1, 3, 4, 5)</text>
  <circle
     onclick="fromCircle(6)"
     class="circle"
     cx="274.7863"
     cy="190.8271"
     r="25.7741"
     id="circle145" />
  <text
     class="nLabel"
     x="274.79"
     y="185.83"
     id="text147">19</text>
  <text
     class="belong"
     x="274.79"
     y="195.83"
     id="text149">(3, 4)</text>
  <circle
     onclick="fromCircle(7)"
     class="circle"
     cx="266.6629"
     cy="238.1949"
     r="15.6443"
     id="circle151" />
  <text
     class="nLabel"
     x="266.66"
     y="233.19"
     id="text153">7</text>
  <text
     class="belong"
     x="266.66"
     y="243.19"
     id="text155">(3, 4, 5)</text>
  <circle
     onclick="fromCircle(5)"
     class="circle"
     cx="309.9786"
     cy="234.2868"
     r="20.4832"
     id="circle157" />
  <text
     class="nLabel"
     x="309.98"
     y="229.29"
     id="text159">12</text>
  <text
     class="belong"
     x="309.98"
     y="239.29"
     id="text161">(3, 5)</text>
  <circle
     onclick="fromCircle(21)"
     class="circle"
     cx="290.2126"
     cy="264.6183"
     r="8.3622"
     id="circle163" />
  <text
     class="nLabel"
     x="290.21"
     y="259.62"
     id="text165">2</text>
  <text
     class="belong"
     x="290.21"
     y="269.62"
     id="text167">(1, 3, 5)</text>
  <circle
     onclick="fromCircle(2)"
     class="circle"
     cx="372.1427"
     cy="319.0362"
     r="60.8779"
     id="circle169" />
  <text
     class="nLabel"
     x="372.14"
     y="314.04"
     id="text171">106</text>
  <text
     class="belong"
     x="372.14"
     y="324.04"
     id="text173">(4)</text>
  <circle
     onclick="fromCircle(18)"
     class="circle"
     cx="297.9121"
     cy="290.3185"
     r="10.2416"
     id="circle175" />
  <text
     class="nLabel"
     x="297.91"
     y="285.32"
     id="text177">3</text>
  <text
     class="belong"
     x="297.91"
     y="295.32"
     id="text179">(1, 4)</text>
  <circle
     onclick="fromCircle(26)"
     class="circle"
     cx="281.6537"
     cy="308.3074"
     r="5.9130"
     id="circle181" />
  <text
     class="nLabel"
     x="281.65"
     y="303.31"
     id="text183">1</text>
  <text
     class="belong"
     x="281.65"
     y="313.31"
     id="text185">(1, 2, 4)</text>
  <circle
     onclick="fromCircle(27)"
     class="circle"
     cx="244.0464"
     cy="333.7936"
     r="11.8260"
     id="circle187" />
  <text
     class="nLabel"
     x="244.05"
     y="328.79"
     id="text189">4</text>
  <text
     class="belong"
     x="244.05"
     y="338.79"
     id="text191">(1, 2, 4, 5)</text>
  <circle
     onclick="fromCircle(3)"
     class="circle"
     cx="284.8734"
     cy="351.9576"
     r="23.6519"
     id="circle193" />
  <text
     class="nLabel"
     x="284.87"
     y="346.96"
     id="text195">16</text>
  <text
     class="belong"
     x="284.87"
     y="356.96"
     id="text197">(4, 5)</text>
  <circle
     onclick="fromCircle(19)"
     class="circle"
     cx="247.8106"
     cy="359.3965"
     r="5.9130"
     id="circle199" />
  <text
     class="nLabel"
     x="247.81"
     y="354.40"
     id="text201">1</text>
  <text
     class="belong"
     x="247.81"
     y="364.40"
     id="text203">(1, 4, 5)</text>
  <circle
     onclick="fromCircle(1)"
     class="circle"
     cx="282.7308"
     cy="417.9753"
     r="33.9675"
     id="circle205" />
  <text
     class="nLabel"
     x="282.73"
     y="412.98"
     id="text207">33</text>
  <text
     class="belong"
     x="282.73"
     y="422.98"
     id="text209">(5)</text>
  <circle
     onclick="fromCircle(17)"
     class="circle"
     cx="238.0773"
     cy="383.0046"
     r="11.8260"
     id="circle211" />
  <text
     class="nLabel"
     x="238.08"
     y="378.00"
     id="text213">4</text>
  <text
     class="belong"
     x="238.08"
     y="388.00"
     id="text215">(1, 5)</text>
  <circle
     onclick="fromCircle(25)"
     class="circle"
     cx="218.4902"
     cy="347.6256"
     r="8.3622"
     id="circle217" />
  <text
     class="nLabel"
     x="218.49"
     y="342.63"
     id="text219">2</text>
  <text
     class="belong"
     x="218.49"
     y="352.63"
     id="text221">(1, 2, 5)</text>
  <circle
     onclick="fromCircle(29)"
     class="circle"
     cx="215.4065"
     cy="318.4840"
     r="8.3622"
     id="circle223" />
  <text
     class="nLabel"
     x="215.41"
     y="313.48"
     id="text225">2</text>
  <text
     class="belong"
     x="215.41"
     y="323.48"
     id="text227">(1, 2, 3, 5)</text>
  <g
     id="legendBox">
    <rect
       class="p0 borderLine"
       x="500.00"
       y="50.00"
       width="30.00"
       height="15.00"
       id="rect229" />
    <rect
       class="q0"
       x="500.00"
       y="50.00"
       width="30.00"
       height="15.00"
       id="rect231" />
    <text
       class="legend"
       x="540.00"
       y="65.00"
       id="text233">REstuary1</text>
    <rect
       class="p1 borderLine"
       x="500.00"
       y="90.00"
       width="30.00"
       height="15.00"
       id="rect235" />
    <rect
       class="q1"
       x="500.00"
       y="90.00"
       width="30.00"
       height="15.00"
       id="rect237" />
    <text
       class="legend"
       x="540.00"
       y="105.00"
       id="text239">REstuary2</text>
    <rect
       class="p2 borderLine"
       x="500.00"
       y="130.00"
       width="30.00"
       height="15.00"
       id="rect241" />
    <rect
       class="q2"
       x="500.00"
       y="130.00"
       width="30.00"
       height="15.00"
       id="rect243" />
    <text
       class="legend"
       x="540.00"
       y="145.00"
       id="text245">NSMarine</text>
    <rect
       class="p3 borderLine"
       x="500.00"
       y="170.00"
       width="30.00"
       height="15.00"
       id="rect247" />
    <rect
       class="q3"
       x="500.00"
       y="170.00"
       width="30.00"
       height="15.00"
       id="rect249" />
    <text
       class="legend"
       x="540.00"
       y="185.00"
       id="text251">OSMarine</text>
    <rect
       class="p4 borderLine"
       x="500.00"
       y="210.00"
       width="30.00"
       height="15.00"
       id="rect253" />
    <rect
       class="q4"
       x="500.00"
       y="210.00"
       width="30.00"
       height="15.00"
       id="rect255" />
    <text
       class="legend"
       x="540.00"
       y="225.00"
       id="text257">SMOutfall</text>
  </g>
</svg>
