<?xml version="1.0" encoding="UTF-8" standalone="no"?>
<svg
   xmlns:dc="http://purl.org/dc/elements/1.1/"
   xmlns:cc="http://creativecommons.org/ns#"
   xmlns:rdf="http://www.w3.org/1999/02/22-rdf-syntax-ns#"
   xmlns:svg="http://www.w3.org/2000/svg"
   xmlns="http://www.w3.org/2000/svg"
   xmlns:xlink="http://www.w3.org/1999/xlink"
   xmlns:sodipodi="http://sodipodi.sourceforge.net/DTD/sodipodi-0.dtd"
   xmlns:inkscape="http://www.inkscape.org/namespaces/inkscape"
   width="700"
   height="500"
   version="1.1"
   id="svg260"
   sodipodi:docname="SharedASVs.svg"
   inkscape:version="1.0.1 (3bc2e813f5, 2020-09-07)">
  <metadata
     id="metadata264">
    <rdf:RDF>
      <cc:Work
         rdf:about="">
        <dc:format>image/svg+xml</dc:format>
        <dc:type
           rdf:resource="http://purl.org/dc/dcmitype/StillImage" />
        <dc:title></dc:title>
      </cc:Work>
    </rdf:RDF>
  </metadata>
  <sodipodi:namedview
     pagecolor="#ffffff"
     bordercolor="#666666"
     borderopacity="1"
     objecttolerance="10"
     gridtolerance="10"
     guidetolerance="10"
     inkscape:pageopacity="0"
     inkscape:pageshadow="2"
     inkscape:window-width="1920"
     inkscape:window-height="1121"
     id="namedview262"
     showgrid="false"
     inkscape:zoom="1.66"
     inkscape:cx="355.42169"
     inkscape:cy="255.42169"
     inkscape:window-x="1911"
     inkscape:window-y="-9"
     inkscape:window-maximized="1"
     inkscape:current-layer="svg260" />
  <defs
     id="defs19">
    <style
       type="text/css"
       id="style2"><![CDATA[
  .borderLine {
	   stroke: none;
	   fill-opacity:  0.2 ;
  }
  .outLine {
	   stroke-width:  1 ;
	   fill: none;
  }
  .circle {
	   stroke: #888888;
	   stroke-width: 0.5;
	   fill: none;
    pointer-events: all;
  }
  .nLabel {
	   font-family: Arial;
    pointer-events: none;
	   font-size: 10px;
	   text-anchor: middle;
	   alignment-baseline: central;
  }
  .belong { 
 display: none;
	   font-family: Arial;
    pointer-events: none;
	   font-size: 5px;
	   text-anchor: middle;
	   alignment-baseline: central;
  }
  .legend {
    font-family: Arial;
    font-size: 15px;
  }
  #legendBox {
    display:  inline ;
  }
  .p0{
    stroke: none;
    fill:  red ;
  }
  .q0{
    fill: none;
    stroke:  red ;
  }
  .p1{
    stroke: none;
    fill:  orange ;
  }
  .q1{
    fill: none;
    stroke:  orange ;
  }
  .p2{
    stroke: none;
    fill:  yellow ;
  }
  .q2{
    fill: none;
    stroke:  yellow ;
  }
  .p3{
    stroke: none;
    fill:  blue ;
  }
  .q3{
    fill: none;
    stroke:  blue ;
  }
  .p4{
    stroke: none;
    fill:  green ;
  }
  .q4{
    fill: none;
    stroke:  green ;
  }
]]></style>
    <symbol
       id="bl0">
      <path
         d="M 300.20 411.36 L 299.65 415.43 L 299.00 419.48 L 298.22 423.51 L 297.29 427.49 L 296.20 431.43 L 294.94 435.31 L 293.49 439.13 L 291.86 442.88 L 290.04 446.53 L 288.04 450.10 L 285.87 453.56 L 283.53 456.91 L 281.02 460.13 L 278.36 463.23 L 275.54 466.19 L 272.58 469.00 L 269.49 471.66 L 266.26 474.16 L 262.91 476.49 L 259.45 478.66 L 255.87 480.64 L 252.20 482.45 L 248.44 484.08 L 244.60 485.51 L 240.69 486.76 L 236.72 487.80 L 232.71 488.65 L 228.66 489.29 L 224.59 489.73 L 220.51 489.97 L 216.41 490.00 L 212.32 489.82 L 208.25 489.44 L 204.19 488.86 L 200.16 488.07 L 196.17 487.07 L 192.22 485.88 L 188.34 484.48 L 184.53 482.90 L 180.79 481.12 L 177.15 479.15 L 173.61 477.01 L 170.19 474.69 L 166.88 472.21 L 163.71 469.57 L 160.68 466.78 L 157.79 463.85 L 155.04 460.78 L 152.44 457.60 L 149.97 454.30 L 147.64 450.91 L 145.43 447.43 L 143.33 443.87 L 141.32 440.25 L 139.39 436.58 L 137.52 432.87 L 135.70 429.15 L 133.91 425.42 L 132.16 421.70 L 130.44 418.01 L 128.75 414.36 L 127.09 410.76 L 125.46 407.21 L 123.86 403.70 L 122.27 400.21 L 120.69 396.74 L 119.11 393.26 L 117.54 389.75 L 115.95 386.22 L 114.37 382.66 L 112.78 379.08 L 111.19 375.50 L 109.62 371.94 L 108.06 368.41 L 106.52 364.90 L 104.98 361.42 L 103.46 357.97 L 101.94 354.52 L 100.43 351.09 L 98.91 347.66 L 97.41 344.25 L 95.92 340.87 L 94.47 337.55 L 93.06 334.31 L 91.71 331.15 L 90.43 328.08 L 89.22 325.09 L 88.11 322.16 L 87.09 319.28 L 86.17 316.42 L 85.37 313.57 L 84.70 310.71 L 84.16 307.83 L 83.78 304.90 L 83.56 301.93 L 83.52 298.90 L 83.65 295.80 L 83.98 292.65 L 84.49 289.46 L 85.20 286.25 L 86.10 283.05 L 87.18 279.89 L 88.43 276.82 L 89.85 273.86 L 91.43 271.02 L 93.16 268.32 L 95.04 265.76 L 97.07 263.34 L 99.23 261.06 L 101.52 258.92 L 103.91 256.93 L 106.39 255.09 L 108.95 253.42 L 111.56 251.91 L 114.23 250.57 L 116.94 249.40 L 119.69 248.40 L 122.49 247.57 L 125.32 246.91 L 128.19 246.41 L 131.11 246.09 L 134.07 245.93 L 137.10 245.96 L 140.18 246.16 L 143.32 246.54 L 146.49 247.09 L 149.70 247.78 L 152.91 248.60 L 156.10 249.51 L 159.25 250.46 L 162.34 251.40 L 165.37 252.29 L 168.33 253.07 L 171.23 253.69 L 174.08 254.12 L 176.89 254.32 L 179.65 254.27 L 182.36 253.95 L 185.01 253.35 L 187.59 252.48 L 190.07 251.34 L 192.42 249.94 L 194.65 248.29 L 196.73 246.43 L 198.67 244.37 L 200.47 242.15 L 202.17 239.80 L 203.80 237.37 L 205.41 234.90 L 207.05 232.44 L 208.79 230.04 L 210.66 227.75 L 212.72 225.59 L 214.98 223.59 L 217.45 221.79 L 220.12 220.16 L 222.95 218.71 L 225.92 217.41 L 228.99 216.22 L 232.13 215.12 L 235.30 214.07 L 238.49 213.01 L 241.65 211.91 L 244.77 210.73 L 247.80 209.42 L 250.71 207.95 L 253.47 206.29 L 256.04 204.40 L 258.39 202.28 L 260.48 199.91 L 262.28 197.31 L 263.77 194.48 L 264.96 191.46 L 265.83 188.27 L 266.40 184.95 L 266.71 181.55 L 266.79 178.09 L 266.68 174.63 L 266.44 171.19 L 266.11 167.79 L 265.76 164.45 L 265.44 161.21 L 265.21 158.06 L 265.12 155.01 L 265.22 152.08 L 265.55 149.28 L 266.12 146.62 L 266.90 144.07 L 267.93 141.62 L 269.34 139.38 L 271.15 137.45 L 273.40 135.99 L 275.93 135.01 L 278.67 134.62 L 281.50 134.88 L 284.27 135.81 L 286.90 137.17 L 289.48 138.69 L 291.98 140.43 L 294.36 142.41 L 296.58 144.64 L 298.60 147.07 L 300.43 149.68 L 302.07 152.43 L 303.56 155.26 L 304.95 158.14 L 305.87 161.24 L 305.93 164.46 L 305.96 167.66 L 305.94 170.82 L 305.85 173.94 L 305.74 177.02 L 305.67 180.04 L 305.69 182.99 L 305.89 185.85 L 306.33 188.59 L 307.05 191.20 L 308.10 193.65 L 309.48 195.89 L 311.20 197.89 L 313.22 199.62 L 315.51 201.05 L 318.03 202.18 L 320.73 203.01 L 323.57 203.56 L 326.50 203.87 L 329.49 203.99 L 332.51 204.00 L 335.55 203.94 L 338.58 203.90 L 341.61 203.91 L 344.64 204.01 L 347.66 204.20 L 350.71 204.43 L 353.71 205.20 L 356.40 206.81 L 359.08 208.50 L 361.69 210.36 L 364.19 212.44 L 366.55 214.75 L 368.75 217.27 L 370.85 219.93 L 372.86 222.75 L 373.77 226.07 L 373.43 229.61 L 373.08 233.18 L 372.66 236.78 L 372.13 240.41 L 371.51 244.07 L 370.83 247.76 L 370.10 251.46 L 369.35 255.16 L 368.56 258.82 L 367.71 262.44 L 366.76 265.97 L 365.67 269.38 L 364.42 272.64 L 363.01 275.73 L 361.47 278.68 L 359.52 281.24 L 357.21 283.35 L 354.87 285.34 L 352.49 287.21 L 350.08 288.96 L 347.69 290.66 L 345.35 292.37 L 343.11 294.13 L 340.98 295.99 L 339.00 297.97 L 337.17 300.07 L 335.49 302.31 L 333.97 304.67 L 332.58 307.13 L 331.31 309.69 L 330.14 312.31 L 329.04 315.00 L 327.99 317.73 L 326.97 320.50 L 325.94 323.30 L 324.89 326.14 L 323.81 329.04 L 322.69 332.00 L 321.52 335.04 L 320.29 338.18 L 319.00 341.43 L 317.66 344.80 L 316.28 348.28 L 314.86 351.87 L 313.43 355.56 L 311.99 359.32 L 310.57 363.14 L 309.20 367.02 L 307.88 370.93 L 306.64 374.88 L 305.52 378.86 L 304.51 382.87 L 303.62 386.90 L 302.87 390.95 L 302.22 395.02 L 301.67 399.10 L 301.17 403.19 L 300.70 407.28 Z"
         id="path4" />
    </symbol>
    <symbol
       id="bl1">
      <path
         d="M 309.22 306.05 L 306.68 307.38 L 304.17 308.74 L 301.69 310.13 L 299.23 311.55 L 296.79 312.99 L 294.36 314.44 L 291.94 315.89 L 289.52 317.34 L 287.10 318.78 L 284.66 320.20 L 282.22 321.58 L 279.76 322.91 L 277.27 324.17 L 274.75 325.34 L 272.19 326.39 L 269.58 327.30 L 266.94 328.04 L 264.24 328.61 L 261.50 328.99 L 258.73 329.21 L 255.92 329.26 L 253.09 329.19 L 250.24 329.01 L 247.38 328.76 L 244.52 328.45 L 241.66 328.12 L 238.79 327.78 L 235.93 327.44 L 233.07 327.13 L 230.21 326.85 L 227.34 326.61 L 224.47 326.43 L 221.60 326.31 L 218.73 326.27 L 215.85 326.31 L 212.98 326.44 L 210.12 326.66 L 207.26 326.97 L 204.42 327.38 L 201.59 327.88 L 198.78 328.48 L 196.00 329.18 L 193.24 329.97 L 190.51 330.86 L 187.81 331.84 L 185.14 332.91 L 182.51 334.06 L 179.92 335.29 L 177.35 336.59 L 174.82 337.94 L 172.30 339.32 L 169.81 340.72 L 167.33 342.11 L 164.85 343.46 L 162.37 344.75 L 159.87 345.97 L 157.35 347.09 L 154.80 348.10 L 152.23 348.99 L 149.62 349.74 L 146.99 350.37 L 144.33 350.86 L 141.64 351.21 L 138.94 351.42 L 136.23 351.50 L 133.52 351.43 L 130.81 351.22 L 128.11 350.88 L 125.43 350.40 L 122.79 349.78 L 120.18 349.03 L 117.61 348.14 L 115.10 347.13 L 112.65 345.99 L 110.26 344.74 L 107.93 343.36 L 105.69 341.86 L 103.52 340.26 L 101.43 338.55 L 99.42 336.73 L 97.51 334.83 L 95.67 332.83 L 93.92 330.75 L 92.24 328.60 L 90.63 326.40 L 89.09 324.14 L 87.61 321.84 L 86.17 319.51 L 84.77 317.16 L 83.40 314.79 L 82.05 312.41 L 80.71 310.02 L 79.39 307.63 L 78.06 305.23 L 76.75 302.83 L 75.43 300.43 L 74.11 298.02 L 72.79 295.62 L 71.48 293.20 L 70.16 290.79 L 68.84 288.38 L 67.51 285.97 L 66.18 283.56 L 64.85 281.15 L 63.50 278.75 L 62.15 276.35 L 60.79 273.95 L 59.42 271.56 L 58.05 269.17 L 56.68 266.78 L 55.31 264.39 L 53.95 262.00 L 52.59 259.60 L 51.25 257.20 L 49.92 254.79 L 48.61 252.38 L 47.31 249.96 L 46.02 247.54 L 44.74 245.12 L 43.46 242.69 L 42.18 240.26 L 40.90 237.83 L 39.61 235.40 L 38.31 232.97 L 36.99 230.53 L 35.66 228.08 L 34.32 225.62 L 32.97 223.16 L 31.62 220.68 L 30.29 218.18 L 28.98 215.66 L 27.72 213.12 L 26.50 210.56 L 25.36 207.98 L 24.28 205.38 L 23.30 202.75 L 22.40 200.11 L 21.60 197.45 L 20.89 194.77 L 20.29 192.07 L 19.78 189.36 L 19.38 186.64 L 19.08 183.91 L 18.88 181.17 L 18.78 178.43 L 18.79 175.68 L 18.90 172.94 L 19.12 170.20 L 19.44 167.46 L 19.87 164.74 L 20.40 162.04 L 21.03 159.35 L 21.77 156.68 L 22.59 154.04 L 23.52 151.43 L 24.54 148.85 L 25.66 146.30 L 26.87 143.80 L 28.17 141.35 L 29.56 138.94 L 31.04 136.59 L 32.61 134.29 L 34.26 132.06 L 36.00 129.89 L 37.82 127.78 L 39.71 125.75 L 41.69 123.78 L 43.74 121.89 L 45.87 120.07 L 48.08 118.33 L 50.36 116.67 L 52.71 115.10 L 55.13 113.61 L 57.62 112.20 L 60.16 110.90 L 62.76 109.68 L 65.40 108.57 L 68.09 107.55 L 70.80 106.64 L 73.54 105.84 L 76.31 105.15 L 79.09 104.56 L 81.88 104.08 L 84.68 103.70 L 87.48 103.42 L 90.29 103.25 L 93.09 103.17 L 95.88 103.18 L 98.66 103.28 L 101.43 103.46 L 104.19 103.71 L 106.94 104.03 L 109.68 104.40 L 112.40 104.83 L 115.13 105.28 L 117.85 105.77 L 120.56 106.28 L 123.28 106.79 L 126.00 107.30 L 128.72 107.81 L 131.45 108.31 L 134.19 108.81 L 136.94 109.29 L 139.69 109.77 L 142.45 110.24 L 145.21 110.71 L 147.97 111.18 L 150.74 111.65 L 153.51 112.11 L 156.28 112.57 L 159.06 113.02 L 161.84 113.45 L 164.62 113.88 L 167.41 114.29 L 170.19 114.71 L 172.98 115.12 L 175.77 115.53 L 178.55 115.96 L 181.33 116.41 L 184.10 116.87 L 186.86 117.35 L 189.62 117.85 L 192.38 118.36 L 195.12 118.89 L 197.87 119.42 L 200.61 119.97 L 203.35 120.52 L 206.09 121.09 L 208.82 121.67 L 211.56 122.27 L 214.30 122.91 L 217.03 123.57 L 219.76 124.29 L 222.48 125.05 L 225.18 125.87 L 227.87 126.74 L 230.52 127.66 L 233.15 128.64 L 235.73 129.66 L 238.28 130.73 L 240.77 131.85 L 243.21 133.02 L 245.59 134.26 L 247.89 135.57 L 250.10 136.97 L 252.20 138.49 L 254.19 140.14 L 256.04 141.93 L 257.75 143.87 L 259.33 145.96 L 260.78 148.18 L 262.13 150.52 L 263.39 152.95 L 264.58 155.45 L 265.73 158.01 L 266.86 160.61 L 267.97 163.23 L 269.08 165.85 L 270.20 168.48 L 271.33 171.09 L 272.48 173.67 L 273.68 176.22 L 274.91 178.71 L 276.22 181.13 L 277.61 183.45 L 279.10 185.65 L 280.72 187.71 L 282.48 189.61 L 284.38 191.34 L 286.42 192.89 L 288.60 194.27 L 290.90 195.50 L 293.30 196.60 L 295.77 197.61 L 298.30 198.58 L 300.88 199.54 L 303.49 200.53 L 306.13 201.59 L 308.79 202.73 L 311.47 203.97 L 314.17 205.32 L 316.90 206.77 L 319.64 208.32 L 322.40 209.94 L 325.18 211.64 L 327.97 213.38 L 330.77 215.16 L 333.57 216.97 L 336.37 218.80 L 339.18 220.63 L 341.97 222.47 L 344.76 224.31 L 347.52 226.14 L 350.24 227.97 L 352.90 229.81 L 355.46 231.67 L 357.88 233.56 L 360.12 235.50 L 362.16 237.51 L 364.01 239.56 L 365.49 241.81 L 366.47 244.26 L 367.24 246.76 L 367.77 249.35 L 368.07 252.02 L 368.17 254.74 L 368.10 257.52 L 367.88 260.31 L 367.53 263.11 L 367.06 265.89 L 366.44 268.63 L 365.66 271.29 L 364.70 273.86 L 363.52 276.30 L 362.12 278.58 L 360.49 280.68 L 358.62 282.59 L 356.55 284.32 L 354.29 285.87 L 351.88 287.27 L 349.35 288.56 L 346.74 289.76 L 344.07 290.90 L 341.37 292.02 L 338.65 293.13 L 335.92 294.24 L 333.20 295.35 L 330.48 296.47 L 327.76 297.60 L 325.06 298.74 L 322.36 299.90 L 319.69 301.08 L 317.03 302.27 L 314.39 303.50 L 311.79 304.75 Z"
         id="path7" />
    </symbol>
    <symbol
       id="bl2">
      <path
         d="M 374.45 184.35 L 373.91 187.06 L 373.22 189.73 L 372.39 192.36 L 371.40 194.94 L 370.29 197.47 L 369.05 199.97 L 367.70 202.43 L 366.29 204.87 L 364.81 207.29 L 363.29 209.70 L 361.75 212.11 L 360.20 214.52 L 358.66 216.94 L 357.13 219.37 L 355.63 221.81 L 354.17 224.27 L 352.75 226.76 L 351.39 229.26 L 350.09 231.79 L 348.85 234.34 L 347.68 236.92 L 346.59 239.51 L 345.58 242.13 L 344.65 244.77 L 343.78 247.42 L 342.98 250.08 L 342.23 252.73 L 341.51 255.36 L 340.80 257.98 L 340.07 260.56 L 339.32 263.13 L 338.52 265.66 L 337.64 268.18 L 336.68 270.67 L 335.60 273.16 L 334.40 275.63 L 333.05 278.07 L 331.54 280.49 L 329.88 282.87 L 328.05 285.18 L 326.07 287.41 L 323.95 289.55 L 321.70 291.57 L 319.33 293.47 L 316.86 295.24 L 314.29 296.86 L 311.64 298.34 L 308.91 299.66 L 306.12 300.83 L 303.27 301.83 L 300.37 302.68 L 297.44 303.37 L 294.49 303.90 L 291.51 304.28 L 288.53 304.52 L 285.54 304.64 L 282.54 304.66 L 279.55 304.61 L 276.57 304.52 L 273.59 304.45 L 270.62 304.43 L 267.67 304.50 L 264.74 304.72 L 261.83 305.09 L 258.96 305.63 L 256.11 306.32 L 253.28 307.10 L 250.46 307.92 L 247.65 308.70 L 244.85 309.37 L 242.05 309.84 L 239.25 310.08 L 236.46 310.04 L 233.68 309.73 L 230.92 309.16 L 228.18 308.35 L 225.46 307.35 L 222.76 306.20 L 220.07 304.94 L 217.38 303.59 L 214.70 302.19 L 212.04 300.74 L 209.39 299.26 L 206.78 297.74 L 204.22 296.17 L 201.73 294.53 L 199.35 292.83 L 197.08 291.04 L 194.95 289.16 L 192.96 287.18 L 191.11 285.11 L 189.38 282.95 L 187.76 280.72 L 186.19 278.42 L 184.64 276.07 L 183.08 273.69 L 181.47 271.29 L 179.78 268.90 L 177.99 266.51 L 176.09 264.16 L 174.11 261.83 L 172.04 259.53 L 169.91 257.25 L 167.77 254.97 L 165.65 252.67 L 163.60 250.32 L 161.67 247.90 L 159.90 245.41 L 158.34 242.82 L 157.02 240.14 L 155.98 237.40 L 155.24 234.59 L 154.81 231.77 L 154.70 228.95 L 154.89 226.18 L 155.39 223.48 L 156.18 220.89 L 157.25 218.42 L 158.58 216.10 L 160.16 213.94 L 161.97 211.94 L 163.99 210.11 L 166.18 208.44 L 168.53 206.93 L 171.00 205.57 L 173.56 204.33 L 176.17 203.20 L 178.83 202.14 L 181.50 201.13 L 184.18 200.15 L 186.85 199.16 L 189.51 198.17 L 192.17 197.16 L 194.82 196.13 L 197.47 195.08 L 200.12 194.01 L 202.77 192.92 L 205.40 191.82 L 207.99 190.68 L 210.53 189.50 L 212.98 188.25 L 215.32 186.92 L 217.51 185.49 L 219.53 183.94 L 221.38 182.28 L 223.04 180.50 L 224.53 178.64 L 225.86 176.68 L 227.03 174.66 L 228.06 172.58 L 228.97 170.45 L 229.76 168.28 L 230.44 166.08 L 231.05 163.85 L 231.61 161.60 L 232.13 159.33 L 232.64 157.06 L 233.17 154.77 L 233.71 152.47 L 234.29 150.15 L 234.88 147.82 L 235.48 145.45 L 236.08 143.05 L 236.65 140.60 L 237.20 138.09 L 237.70 135.53 L 238.15 132.92 L 238.56 130.25 L 238.93 127.54 L 239.27 124.79 L 239.58 122.01 L 239.88 119.21 L 240.17 116.39 L 240.45 113.56 L 240.72 110.71 L 240.99 107.85 L 241.25 104.99 L 241.49 102.12 L 241.73 99.25 L 241.96 96.38 L 242.18 93.50 L 242.40 90.63 L 242.62 87.75 L 242.84 84.88 L 243.07 82.01 L 243.33 79.14 L 243.62 76.27 L 243.95 73.40 L 244.32 70.54 L 244.76 67.69 L 245.27 64.85 L 245.86 62.02 L 246.54 59.21 L 247.32 56.43 L 248.20 53.68 L 249.20 50.96 L 250.30 48.29 L 251.53 45.66 L 252.87 43.09 L 254.34 40.57 L 255.92 38.13 L 257.62 35.75 L 259.43 33.46 L 261.34 31.25 L 263.36 29.13 L 265.47 27.10 L 267.67 25.17 L 269.94 23.34 L 272.29 21.62 L 274.71 20.00 L 277.20 18.48 L 279.74 17.08 L 282.34 15.80 L 284.99 14.63 L 287.69 13.60 L 290.43 12.70 L 293.21 11.93 L 296.02 11.29 L 298.84 10.79 L 301.67 10.41 L 304.48 10.16 L 307.27 10.02 L 310.00 10.00 L 312.68 10.08 L 315.29 10.26 L 317.83 10.54 L 320.29 10.91 L 322.69 11.37 L 325.02 11.91 L 327.30 12.54 L 329.55 13.25 L 331.76 14.06 L 333.96 14.96 L 336.14 15.96 L 338.33 17.08 L 340.51 18.31 L 342.69 19.67 L 344.88 21.16 L 347.05 22.78 L 349.20 24.52 L 351.31 26.38 L 353.37 28.36 L 355.37 30.44 L 357.29 32.62 L 359.12 34.88 L 360.85 37.21 L 362.47 39.59 L 363.98 42.03 L 365.36 44.49 L 366.63 46.98 L 367.78 49.48 L 368.80 51.98 L 369.70 54.49 L 370.49 57.01 L 371.18 59.53 L 371.76 62.06 L 372.26 64.60 L 372.67 67.16 L 373.02 69.73 L 373.30 72.32 L 373.54 74.93 L 373.75 77.57 L 373.92 80.25 L 374.07 82.96 L 374.20 85.72 L 374.33 88.52 L 374.43 91.36 L 374.53 94.24 L 374.62 97.13 L 374.69 100.05 L 374.76 102.99 L 374.82 105.93 L 374.87 108.87 L 374.91 111.82 L 374.95 114.77 L 374.99 117.72 L 375.02 120.67 L 375.07 123.62 L 375.11 126.56 L 375.16 129.51 L 375.21 132.45 L 375.26 135.39 L 375.32 138.33 L 375.37 141.28 L 375.43 144.22 L 375.48 147.15 L 375.53 150.09 L 375.58 153.01 L 375.62 155.93 L 375.65 158.84 L 375.66 161.74 L 375.67 164.62 L 375.65 167.49 L 375.60 170.35 L 375.51 173.19 L 375.38 176.02 L 375.17 178.82 L 374.86 181.60 Z"
         id="path10" />
    </symbol>
    <symbol
       id="bl3">
      <path
         d="M 469.04 294.92 L 466.94 297.48 L 464.69 299.91 L 462.30 302.21 L 459.80 304.38 L 457.18 306.41 L 454.47 308.30 L 451.67 310.07 L 448.80 311.72 L 445.88 313.27 L 442.92 314.72 L 439.94 316.10 L 436.95 317.42 L 433.98 318.68 L 431.02 319.90 L 428.10 321.08 L 425.20 322.24 L 422.32 323.39 L 419.45 324.54 L 416.57 325.68 L 413.66 326.84 L 410.72 328.02 L 407.74 329.22 L 404.72 330.44 L 401.66 331.67 L 398.59 332.92 L 395.50 334.17 L 392.40 335.42 L 389.30 336.66 L 386.22 337.89 L 383.15 339.07 L 380.12 340.21 L 377.12 341.27 L 374.17 342.24 L 371.28 343.08 L 368.45 343.78 L 365.68 344.32 L 362.97 344.69 L 360.32 344.88 L 357.71 344.89 L 355.15 344.71 L 352.62 344.37 L 350.11 343.88 L 347.62 343.24 L 345.13 342.48 L 342.63 341.61 L 340.11 340.64 L 337.58 339.60 L 335.03 338.51 L 332.48 337.38 L 329.95 336.24 L 327.45 335.09 L 325.00 333.95 L 322.60 332.82 L 320.27 331.70 L 317.99 330.60 L 315.76 329.50 L 313.57 328.40 L 311.42 327.29 L 309.29 326.17 L 307.19 325.04 L 305.09 323.90 L 303.01 322.74 L 300.94 321.57 L 298.87 320.40 L 296.81 319.23 L 294.75 318.05 L 292.69 316.88 L 290.64 315.71 L 288.58 314.55 L 286.51 313.39 L 284.45 312.23 L 282.37 311.07 L 280.29 309.91 L 278.20 308.74 L 276.09 307.55 L 273.96 306.33 L 271.81 305.09 L 269.62 303.79 L 267.39 302.43 L 265.13 301.01 L 262.84 299.51 L 260.53 297.92 L 258.23 296.25 L 255.97 294.49 L 253.76 292.66 L 251.63 290.76 L 249.60 288.79 L 247.68 286.77 L 245.88 284.69 L 244.19 282.57 L 242.61 280.39 L 241.13 278.17 L 239.74 275.90 L 238.42 273.61 L 237.14 271.29 L 235.88 268.97 L 234.62 266.65 L 233.32 264.37 L 231.96 262.13 L 230.51 259.96 L 228.95 257.86 L 227.28 255.84 L 225.51 253.90 L 223.64 252.03 L 221.70 250.20 L 219.73 248.39 L 217.78 246.56 L 215.87 244.69 L 214.07 242.74 L 212.39 240.70 L 210.86 238.56 L 209.48 236.31 L 208.24 233.97 L 207.11 231.56 L 206.06 229.11 L 205.03 226.64 L 203.98 224.18 L 202.87 221.76 L 201.65 219.40 L 200.30 217.12 L 198.80 214.93 L 197.16 212.85 L 195.38 210.86 L 193.46 208.97 L 191.44 207.17 L 189.34 205.43 L 187.19 203.72 L 185.01 202.02 L 182.85 200.30 L 180.75 198.53 L 178.75 196.68 L 176.90 194.73 L 175.24 192.67 L 173.84 190.51 L 172.72 188.25 L 171.93 185.91 L 171.49 183.51 L 171.41 181.09 L 171.72 178.67 L 172.44 176.32 L 173.54 174.08 L 174.97 171.97 L 176.67 170.01 L 178.62 168.19 L 180.77 166.54 L 183.08 165.04 L 185.51 163.68 L 188.02 162.43 L 190.59 161.29 L 193.18 160.24 L 195.80 159.28 L 198.41 158.42 L 201.01 157.68 L 203.60 157.08 L 206.17 156.63 L 208.72 156.35 L 211.25 156.26 L 213.76 156.34 L 216.24 156.61 L 218.71 157.02 L 221.15 157.56 L 223.58 158.19 L 226.00 158.90 L 228.41 159.66 L 230.81 160.44 L 233.22 161.20 L 235.64 161.92 L 238.08 162.58 L 240.56 163.15 L 243.08 163.62 L 245.66 163.98 L 248.30 164.22 L 251.02 164.37 L 253.81 164.42 L 256.67 164.40 L 259.58 164.32 L 262.53 164.18 L 265.47 164.00 L 268.40 163.76 L 271.26 163.46 L 274.04 163.07 L 276.70 162.56 L 279.23 161.92 L 281.61 161.13 L 283.85 160.17 L 285.95 159.07 L 287.94 157.83 L 289.84 156.47 L 291.68 155.03 L 293.49 153.54 L 295.31 152.03 L 297.14 150.51 L 299.02 149.02 L 300.95 147.55 L 302.95 146.12 L 305.01 144.75 L 307.16 143.46 L 309.37 142.26 L 311.65 141.18 L 313.99 140.25 L 316.38 139.50 L 318.80 138.96 L 321.22 138.67 L 323.62 138.63 L 325.97 138.87 L 328.23 139.40 L 330.37 140.21 L 332.36 141.29 L 334.16 142.64 L 335.76 144.22 L 337.13 146.01 L 338.27 147.98 L 339.18 150.09 L 339.85 152.31 L 340.32 154.62 L 340.60 156.99 L 340.72 159.41 L 340.72 161.86 L 340.61 164.33 L 340.45 166.82 L 340.24 169.31 L 340.02 171.81 L 339.80 174.31 L 339.60 176.81 L 339.44 179.31 L 339.32 181.80 L 339.24 184.28 L 339.21 186.75 L 339.23 189.20 L 339.28 191.65 L 339.37 194.08 L 339.51 196.49 L 339.69 198.87 L 339.94 201.22 L 340.27 203.52 L 340.71 205.76 L 341.29 207.89 L 342.04 209.89 L 342.98 211.72 L 344.15 213.34 L 345.55 214.70 L 347.19 215.77 L 349.05 216.55 L 351.12 216.98 L 353.37 217.12 L 355.79 216.99 L 358.35 216.63 L 361.04 216.10 L 363.84 215.45 L 366.75 214.73 L 369.76 213.98 L 372.84 213.23 L 375.99 212.49 L 379.19 211.77 L 382.42 211.07 L 385.67 210.39 L 388.93 209.73 L 392.19 209.08 L 395.45 208.46 L 398.70 207.85 L 401.95 207.27 L 405.20 206.73 L 408.45 206.23 L 411.69 205.80 L 414.94 205.44 L 418.19 205.19 L 421.44 205.05 L 424.68 205.04 L 427.92 205.18 L 431.14 205.48 L 434.34 205.94 L 437.51 206.58 L 440.65 207.40 L 443.74 208.39 L 446.77 209.57 L 449.73 210.91 L 452.61 212.43 L 455.39 214.11 L 458.07 215.95 L 460.63 217.94 L 463.07 220.07 L 465.38 222.34 L 467.55 224.73 L 469.58 227.25 L 471.45 229.87 L 473.17 232.58 L 474.73 235.36 L 476.12 238.19 L 477.35 241.04 L 478.40 243.89 L 479.28 246.72 L 479.99 249.52 L 480.54 252.29 L 480.92 255.02 L 481.15 257.75 L 481.22 260.48 L 481.13 263.24 L 480.89 266.05 L 480.48 268.91 L 479.91 271.82 L 479.16 274.78 L 478.24 277.76 L 477.14 280.74 L 475.86 283.71 L 474.41 286.63 L 472.79 289.48 L 470.99 292.25 Z"
         id="path13" />
    </symbol>
    <symbol
       id="bl4">
      <path
         d="M 400.79 382.30 L 401.12 385.25 L 401.38 388.21 L 401.55 391.17 L 401.60 394.14 L 401.53 397.10 L 401.32 400.06 L 400.97 403.00 L 400.45 405.92 L 399.78 408.80 L 398.94 411.64 L 397.94 414.42 L 396.77 417.14 L 395.45 419.79 L 393.97 422.35 L 392.34 424.82 L 390.57 427.19 L 388.66 429.45 L 386.63 431.58 L 384.47 433.59 L 382.19 435.48 L 379.81 437.22 L 377.33 438.81 L 374.76 440.26 L 372.11 441.55 L 369.40 442.68 L 366.63 443.65 L 363.82 444.45 L 360.96 445.09 L 358.08 445.55 L 355.17 445.84 L 352.26 445.96 L 349.34 445.90 L 346.42 445.66 L 343.52 445.26 L 340.63 444.67 L 337.78 443.91 L 334.96 442.98 L 332.20 441.88 L 329.50 440.61 L 326.88 439.19 L 324.34 437.61 L 321.91 435.88 L 319.58 434.01 L 317.38 432.01 L 315.30 429.89 L 313.35 427.64 L 311.55 425.29 L 309.88 422.83 L 308.36 420.29 L 306.98 417.66 L 305.74 414.97 L 304.63 412.21 L 303.63 409.41 L 302.73 406.58 L 301.90 403.72 L 301.13 400.84 L 300.39 397.96 L 299.65 395.07 L 298.90 392.19 L 298.11 389.32 L 297.26 386.47 L 296.34 383.64 L 295.35 380.84 L 294.26 378.07 L 293.09 375.34 L 291.83 372.65 L 290.47 370.00 L 289.02 367.41 L 287.48 364.87 L 285.85 362.38 L 284.13 359.96 L 282.33 357.58 L 280.44 355.27 L 278.48 353.01 L 276.44 350.79 L 274.34 348.63 L 272.17 346.50 L 269.94 344.41 L 267.67 342.35 L 265.37 340.31 L 263.03 338.29 L 260.69 336.29 L 258.33 334.30 L 255.97 332.31 L 253.62 330.33 L 251.27 328.34 L 248.93 326.35 L 246.60 324.35 L 244.29 322.33 L 242.00 320.30 L 239.77 318.24 L 237.61 316.14 L 235.56 313.99 L 233.67 311.79 L 231.97 309.51 L 230.53 307.16 L 229.38 304.72 L 228.56 302.20 L 228.08 299.62 L 227.94 296.98 L 228.12 294.31 L 228.57 291.61 L 229.21 288.91 L 229.97 286.19 L 230.77 283.47 L 231.55 280.74 L 232.24 277.99 L 232.80 275.22 L 233.22 272.42 L 233.49 269.60 L 233.65 266.76 L 233.71 263.89 L 233.71 261.02 L 233.70 258.14 L 233.71 255.25 L 233.75 252.36 L 233.83 249.47 L 233.96 246.58 L 234.12 243.71 L 234.27 240.84 L 234.39 237.99 L 234.44 235.16 L 234.38 232.36 L 234.20 229.58 L 233.87 226.82 L 233.40 224.08 L 232.80 221.35 L 232.07 218.62 L 231.23 215.91 L 230.29 213.21 L 229.25 210.55 L 228.11 207.94 L 226.86 205.40 L 225.50 202.96 L 224.01 200.63 L 222.39 198.44 L 220.64 196.39 L 218.77 194.47 L 216.81 192.67 L 214.80 190.95 L 212.78 189.27 L 210.79 187.59 L 208.89 185.87 L 207.11 184.07 L 205.49 182.17 L 204.04 180.16 L 202.72 178.08 L 201.56 175.89 L 200.67 173.57 L 200.11 171.14 L 199.83 168.68 L 199.67 166.21 L 199.60 163.75 L 199.67 161.28 L 199.86 158.83 L 200.19 156.39 L 200.64 153.97 L 201.22 151.57 L 201.91 149.21 L 202.72 146.89 L 203.63 144.62 L 204.64 142.40 L 205.76 140.26 L 206.98 138.21 L 208.29 136.28 L 209.68 134.48 L 211.13 132.82 L 212.72 131.38 L 214.44 130.21 L 216.28 129.33 L 218.24 128.74 L 220.30 128.46 L 222.44 128.47 L 224.63 128.72 L 226.88 129.10 L 229.17 129.60 L 231.47 130.22 L 233.78 130.93 L 236.08 131.72 L 238.35 132.59 L 240.60 133.54 L 242.80 134.57 L 244.94 135.68 L 247.04 136.89 L 249.07 138.18 L 251.05 139.56 L 252.97 141.03 L 254.84 142.57 L 256.67 144.17 L 258.45 145.84 L 260.21 147.55 L 261.94 149.31 L 263.65 151.09 L 265.36 152.89 L 267.09 154.70 L 268.84 156.48 L 270.64 158.22 L 272.51 159.90 L 274.44 161.50 L 276.45 163.00 L 278.54 164.38 L 280.71 165.64 L 282.94 166.77 L 285.23 167.74 L 287.56 168.58 L 289.92 169.28 L 292.32 169.85 L 294.73 170.31 L 297.17 170.67 L 299.62 170.94 L 302.10 171.15 L 304.60 171.30 L 307.12 171.40 L 309.67 171.47 L 312.26 171.49 L 314.86 171.48 L 317.49 171.43 L 320.15 171.35 L 322.81 171.23 L 325.49 171.07 L 328.18 170.87 L 330.87 170.63 L 333.55 170.36 L 336.24 170.07 L 338.93 169.76 L 341.60 169.47 L 344.26 169.20 L 346.91 169.00 L 349.53 168.90 L 352.11 168.92 L 354.65 169.10 L 357.13 169.47 L 359.52 170.07 L 361.80 170.90 L 363.94 171.98 L 365.91 173.31 L 367.68 174.88 L 369.21 176.68 L 370.47 178.67 L 371.46 180.82 L 372.14 183.11 L 372.51 185.49 L 372.59 187.94 L 372.37 190.41 L 371.89 192.89 L 371.18 195.35 L 370.26 197.78 L 369.18 200.17 L 367.97 202.51 L 366.67 204.82 L 365.30 207.10 L 363.88 209.35 L 362.43 211.58 L 360.98 213.80 L 359.52 216.02 L 358.07 218.23 L 356.65 220.45 L 355.25 222.67 L 353.91 224.90 L 352.62 227.14 L 351.40 229.39 L 350.27 231.65 L 349.27 233.93 L 348.41 236.21 L 347.73 238.49 L 347.28 240.76 L 347.09 243.01 L 347.19 245.22 L 347.61 247.38 L 348.36 249.45 L 349.42 251.44 L 350.77 253.35 L 352.37 255.18 L 354.16 256.98 L 356.07 258.78 L 358.03 260.62 L 359.99 262.54 L 361.89 264.57 L 363.70 266.74 L 365.41 269.03 L 367.01 271.45 L 368.53 273.97 L 369.99 276.57 L 371.41 279.22 L 372.82 281.90 L 374.24 284.58 L 375.67 287.26 L 377.13 289.93 L 378.61 292.58 L 380.08 295.22 L 381.52 297.87 L 382.90 300.53 L 384.21 303.20 L 385.42 305.92 L 386.52 308.67 L 387.52 311.46 L 388.40 314.29 L 389.20 317.17 L 389.92 320.07 L 390.57 323.01 L 391.19 325.97 L 391.77 328.94 L 392.33 331.93 L 392.87 334.92 L 393.40 337.91 L 393.93 340.91 L 394.45 343.90 L 394.96 346.88 L 395.47 349.86 L 395.98 352.83 L 396.49 355.80 L 397.00 358.75 L 397.51 361.71 L 398.01 364.65 L 398.52 367.59 L 399.02 370.53 L 399.50 373.47 L 399.97 376.41 L 400.40 379.35 Z"
         id="path16" />
    </symbol>
  </defs>
  <!-- isDone: 0 -->
  <rect
     width="700"
     height="500"
     style="fill:#fff;stroke-width:0"
     id="rect21" />
  <use
     class="p0 borderLine"
     xlink:href="#bl0"
     id="use23" />
  <use
     class="p1 borderLine"
     xlink:href="#bl1"
     id="use25" />
  <use
     class="p2 borderLine"
     xlink:href="#bl2"
     id="use27" />
  <use
     class="p3 borderLine"
     xlink:href="#bl3"
     id="use29" />
  <use
     class="p4 borderLine"
     xlink:href="#bl4"
     id="use31" />
  <use
     class="q0 outLine"
     xlink:href="#bl0"
     id="use33" />
  <use
     class="q1 outLine"
     xlink:href="#bl1"
     id="use35" />
  <use
     class="q2 outLine"
     xlink:href="#bl2"
     id="use37" />
  <use
     class="q3 outLine"
     xlink:href="#bl3"
     id="use39" />
  <use
     class="q4 outLine"
     xlink:href="#bl4"
     id="use41" />
  <circle
     onclick="fromCircle(16)"
     class="circle"
     cx="217.2366"
     cy="409.9597"
     r="79.2872"
     id="circle43" />
  <text
     class="nLabel"
     x="217.24001"
     y="404.95999"
     id="text45"
     style="font-size:16px">1628</text>
  <text
     class="belong"
     x="217.24"
     y="414.96"
     id="text47">(1)</text>
  <circle
     onclick="fromCircle(24)"
     class="circle"
     cx="135.1308"
     cy="298.9734"
     r="49.7901"
     id="circle49" />
  <text
     class="nLabel"
     x="135.13"
     y="293.97"
     id="text51"
     style="font-size:16px">642</text>
  <text
     class="belong"
     x="135.13"
     y="303.97"
     id="text53">(1, 2)</text>
  <circle
     onclick="fromCircle(28)"
     class="circle"
     cx="209.6726"
     cy="271.6075"
     r="20.6097"
     id="circle55" />
  <text
     class="nLabel"
     x="209.67"
     y="266.60999"
     id="text57"
     style="font-size:16px">110</text>
  <text
     class="belong"
     x="209.67"
     y="276.61"
     id="text59">(1, 2, 3)</text>
  <circle
     onclick="fromCircle(30)"
     class="circle"
     cx="221.3715"
     cy="232.4991"
     r="10.5822"
     id="circle61" />
  <text
     class="belong"
     x="221.37"
     y="237.50"
     id="text65">(1, 2, 3, 4)</text>
  <circle
     onclick="fromCircle(31)"
     class="circle"
     cx="287.3820"
     cy="251.4963"
     r="49.8289"
     id="circle67" />
  <text
     class="nLabel"
     x="287.38"
     y="246.5"
     id="text69"
     style="font-size:16px"><tspan
       style="font-style:normal;font-variant:normal;font-weight:bold;font-stretch:normal;font-family:Arial;-inkscape-font-specification:'Arial Bold'"
       id="tspan270">643</tspan></text>
  <text
     class="belong"
     x="287.38"
     y="256.50"
     id="text71">(1, 2, 3, 4, 5)</text>
  <circle
     onclick="fromCircle(8)"
     class="circle"
     cx="91.1661"
     cy="176.7642"
     r="70.7149"
     id="circle73" />
  <text
     class="nLabel"
     x="91.169998"
     y="171.75999"
     id="text75"
     style="font-size:16px">1295</text>
  <text
     class="belong"
     x="91.17"
     y="181.76"
     id="text77">(2)</text>
  <circle
     onclick="fromCircle(12)"
     class="circle"
     cx="178.4296"
     cy="229.7240"
     r="22.4911"
     id="circle79" />
  <text
     class="nLabel"
     x="178.42999"
     y="224.72"
     id="text81"
     style="font-size:16px">131</text>
  <text
     class="belong"
     x="178.43"
     y="234.72"
     id="text83">(2, 3)</text>
  <circle
     onclick="fromCircle(14)"
     class="circle"
     cx="211.4606"
     cy="205.2679"
     r="10.9410"
     id="circle85" />
  <text
     class="belong"
     x="211.46"
     y="210.27"
     id="text89">(2, 3, 4)</text>
  <circle
     onclick="fromCircle(15)"
     class="circle"
     cx="245.3796"
     cy="187.5036"
     r="18.9503"
     id="circle91" />
  <text
     class="belong"
     x="245.38"
     y="192.50"
     id="text95">(2, 3, 4, 5)</text>
  <circle
     onclick="fromCircle(10)"
     class="circle"
     cx="184.5624"
     cy="181.3113"
     r="12.8858"
     id="circle97" />
  <text
     class="belong"
     x="184.56"
     y="186.31"
     id="text101">(2, 4)</text>
  <circle
     onclick="fromCircle(11)"
     class="circle"
     cx="213.2089"
     cy="169.7552"
     r="13.0347"
     id="circle103" />
  <text
     class="belong"
     x="213.21"
     y="174.76"
     id="text107">(2, 4, 5)</text>
  <circle
     onclick="fromCircle(9)"
     class="circle"
     cx="220.8680"
     cy="141.1960"
     r="12.5825"
     id="circle109" />
  <text
     class="belong"
     x="220.87"
     y="146.20"
     id="text113">(2, 5)</text>
  <circle
     onclick="fromCircle(13)"
     class="circle"
     cx="247.0605"
     cy="150.6906"
     r="10.7631"
     id="circle115" />
  <text
     class="belong"
     x="247.06"
     y="155.69"
     id="text119">(2, 3, 5)</text>
  <circle
     onclick="fromCircle(4)"
     class="circle"
     cx="309.0155"
     cy="72.6323"
     r="60.5353"
     id="circle121" />
  <text
     class="nLabel"
     x="309.01999"
     y="67.629997"
     id="text123"
     style="font-size:16px">949</text>
  <text
     class="belong"
     x="309.02"
     y="77.63"
     id="text125">(3)</text>
  <circle
     onclick="fromCircle(20)"
     class="circle"
     cx="278.9657"
     cy="146.8214"
     r="12.1134"
     id="circle127" />
  <text
     class="belong"
     x="278.97"
     y="151.82"
     id="text131">(1, 3)</text>
  <circle
     onclick="fromCircle(22)"
     class="circle"
     cx="297.8994"
     cy="161.9850"
     r="7.8602"
     id="circle133" />
  <text
     class="belong"
     x="297.90"
     y="166.99"
     id="text137">(1, 3, 4)</text>
  <circle
     onclick="fromCircle(23)"
     class="circle"
     cx="292.1274"
     cy="183.1943"
     r="9.4241"
     id="circle139" />
  <text
     class="belong"
     x="292.13"
     y="188.19"
     id="text143">(1, 3, 4, 5)</text>
  <circle
     onclick="fromCircle(6)"
     class="circle"
     cx="323.6836"
     cy="153.7432"
     r="14.4402"
     id="circle145" />
  <text
     class="belong"
     x="323.68"
     y="158.74"
     id="text149">(3, 4)</text>
  <circle
     onclick="fromCircle(7)"
     class="circle"
     cx="321.6737"
     cy="187.2103"
     r="14.4402"
     id="circle151" />
  <text
     class="belong"
     x="321.67"
     y="192.21"
     id="text155">(3, 4, 5)</text>
  <circle
     onclick="fromCircle(5)"
     class="circle"
     cx="356.8455"
     cy="186.0685"
     r="14.5733"
     id="circle157" />
  <text
     class="belong"
     x="356.85"
     y="191.07"
     id="text161">(3, 5)</text>
  <circle
     onclick="fromCircle(21)"
     class="circle"
     cx="350.7285"
     cy="210.5246"
     r="5.8952"
     id="circle163" />
  <text
     class="belong"
     x="350.73"
     y="215.52"
     id="text167">(1, 3, 5)</text>
  <circle
     onclick="fromCircle(2)"
     class="circle"
     cx="426.3526"
     cy="261.0504"
     r="52.7647"
     id="circle169" />
  <text
     class="nLabel"
     x="426.35001"
     y="256.04999"
     id="text171"
     style="font-size:16px">721</text>
  <text
     class="belong"
     x="426.35"
     y="266.05"
     id="text173">(4)</text>
  <circle
     onclick="fromCircle(18)"
     class="circle"
     cx="366.3798"
     cy="225.8826"
     r="7.0851"
     id="circle175" />
  <text
     class="belong"
     x="366.38"
     y="230.88"
     id="text179">(1, 4)</text>
  <circle
     onclick="fromCircle(26)"
     class="circle"
     cx="357.4362"
     cy="245.5696"
     r="8.7880"
     id="circle181" />
  <text
     class="belong"
     x="357.44"
     y="250.57"
     id="text185">(1, 2, 4)</text>
  <circle
     onclick="fromCircle(27)"
     class="circle"
     cx="351.7354"
     cy="272.8523"
     r="11.2884"
     id="circle187" />
  <text
     class="belong"
     x="351.74"
     y="277.85"
     id="text191">(1, 2, 4, 5)</text>
  <circle
     onclick="fromCircle(3)"
     class="circle"
     cx="359.6761"
     cy="317.2967"
     r="25.3942"
     id="circle193" />
  <text
     class="nLabel"
     x="359.67999"
     y="312.29999"
     id="text195"
     style="font-size:16px">167</text>
  <text
     class="belong"
     x="359.68"
     y="322.30"
     id="text197">(4, 5)</text>
  <circle
     onclick="fromCircle(19)"
     class="circle"
     cx="316.0721"
     cy="316.3810"
     r="8.1021"
     id="circle199" />
  <text
     class="belong"
     x="316.07"
     y="321.38"
     id="text203">(1, 4, 5)</text>
  <circle
     onclick="fromCircle(1)"
     class="circle"
     cx="352.4173"
     cy="397.7217"
     r="46.5848"
     id="circle205" />
  <text
     class="nLabel"
     x="352.42001"
     y="392.72"
     id="text207"
     style="font-size:16px">562</text>
  <text
     class="belong"
     x="352.42"
     y="402.72"
     id="text209">(5)</text>
  <circle
     onclick="fromCircle(17)"
     class="circle"
     cx="300.7577"
     cy="342.8708"
     r="8.1021"
     id="circle211" />
  <text
     class="belong"
     x="300.76"
     y="347.87"
     id="text215">(1, 5)</text>
  <circle
     onclick="fromCircle(25)"
     class="circle"
     cx="262.4224"
     cy="317.2690"
     r="10.0199"
     id="circle217" />
  <text
     class="belong"
     x="262.42"
     y="322.27"
     id="text221">(1, 2, 5)</text>
  <circle
     onclick="fromCircle(29)"
     class="circle"
     cx="238.7274"
     cy="299.0964"
     r="10.2107"
     id="circle223" />
  <text
     class="belong"
     x="238.73"
     y="304.10"
     id="text227">(1, 2, 3, 5)</text>
  <g
     id="legendBox">
    <rect
       class="p0 borderLine"
       x="500.00"
       y="50.00"
       width="30.00"
       height="15.00"
       id="rect229" />
    <rect
       class="q0"
       x="500.00"
       y="50.00"
       width="30.00"
       height="15.00"
       id="rect231" />
    <text
       class="legend"
       x="540.00"
       y="65.00"
       id="text233">REstuary1</text>
    <rect
       class="p1 borderLine"
       x="500.00"
       y="90.00"
       width="30.00"
       height="15.00"
       id="rect235" />
    <rect
       class="q1"
       x="500.00"
       y="90.00"
       width="30.00"
       height="15.00"
       id="rect237" />
    <text
       class="legend"
       x="540.00"
       y="105.00"
       id="text239">REstuary2</text>
    <rect
       class="p2 borderLine"
       x="500.00"
       y="130.00"
       width="30.00"
       height="15.00"
       id="rect241" />
    <rect
       class="q2"
       x="500.00"
       y="130.00"
       width="30.00"
       height="15.00"
       id="rect243" />
    <text
       class="legend"
       x="540.00"
       y="145.00"
       id="text245">NSMarine</text>
    <rect
       class="p3 borderLine"
       x="500.00"
       y="170.00"
       width="30.00"
       height="15.00"
       id="rect247" />
    <rect
       class="q3"
       x="500.00"
       y="170.00"
       width="30.00"
       height="15.00"
       id="rect249" />
    <text
       class="legend"
       x="540.00"
       y="185.00"
       id="text251">OSMarine</text>
    <rect
       class="p4 borderLine"
       x="500.00"
       y="210.00"
       width="30.00"
       height="15.00"
       id="rect253" />
    <rect
       class="q4"
       x="500.00"
       y="210.00"
       width="30.00"
       height="15.00"
       id="rect255" />
    <text
       class="legend"
       x="540.00"
       y="225.00"
       id="text257">SMOutfall</text>
  </g>
</svg>
